<svg width="517" height="340" viewBox="0 0 517 340" fill="none" xmlns="http://www.w3.org/2000/svg">
<path d="M460.5 28.5L461 28.5L461 28.5L460.5 28.5ZM460.5 29.5439H460V29.5578L460.001 29.5717L460.5 29.5439ZM488.33 56.5L488.314 56.9998L488.322 57H488.33V56.5ZM496.767 56.5L497.029 56.9254L498.528 56H496.767V56.5ZM496.7 56.541L496.437 56.1156L494.939 57.041H496.7V56.541ZM516.488 75.4502H515.988V76.8018L516.868 75.7756L516.488 75.4502ZM516.5 75.4365H517V74.0849L516.12 75.1111L516.5 75.4365ZM30.5 339.5L30.5 340H30.5V339.5ZM431.5 0.5V1C446.247 1 460 13.7982 460 28.5L460.5 28.5L461 28.5C461 13.2016 446.753 0 431.5 0V0.5ZM460.5 28.5H460V29.5439H460.5H461V28.5H460.5ZM460.5 29.5439L460.001 29.5717C460.813 44.1679 473.996 56.5494 488.314 56.9998L488.33 56.5L488.346 56.0002C474.53 55.5657 461.781 43.579 460.999 29.5162L460.5 29.5439ZM488.33 56.5V57H496.767V56.5V56H488.33V56.5ZM496.767 56.5L496.504 56.0746L496.437 56.1156L496.7 56.541L496.963 56.9664L497.029 56.9254L496.767 56.5ZM496.7 56.541V57.041C506.687 57.041 515.988 65.6233 515.988 75.4502H516.488H516.988C516.988 65.0172 507.184 56.041 496.7 56.041V56.541ZM516.488 75.4502L516.868 75.7756L516.88 75.7619L516.5 75.4365L516.12 75.1111L516.109 75.1248L516.488 75.4502ZM516.5 75.4365H516V309.5H516.5H517V75.4365H516.5ZM516.5 309.5H516C516 325.792 502.792 339 486.5 339V339.5V340C503.345 340 517 326.345 517 309.5H516.5ZM486.5 339.5V339H30.5V339.5V340H486.5V339.5ZM30.5 339.5L30.5 339C14.2076 339 1 325.792 1 309.5H0.5H0C0 326.345 13.6553 340 30.5 340L30.5 339.5ZM0.5 309.5H1V30.5H0.5H0V309.5H0.5ZM0.5 30.5H1C1 14.2076 14.2076 1 30.5 1V0.5V0C13.6553 0 0 13.6553 0 30.5H0.5ZM30.5 0.5V1H431.5V0.5V0H30.5V0.5Z" fill="url(#paint0_linear_179_81)"/>
<defs>
<linearGradient id="paint0_linear_179_81" x1="258.5" y1="0.5" x2="258.5" y2="339.5" gradientUnits="userSpaceOnUse">
<stop stop-color="#1100FF" stop-opacity="0.8"/>
<stop offset="1" stop-color="#FF00F2" stop-opacity="0.6"/>
</linearGradient>
</defs>
</svg>
