<svg width="101" height="93" viewBox="0 0 101 93" fill="none" xmlns="http://www.w3.org/2000/svg">
<path d="M33.043 39.2773H23.9492V37.1445H33.043V39.2773ZM24.5 47H21.8398V29.9375H24.5V47ZM35.1992 47H32.5508V29.9375H35.1992V47ZM44.0703 47.2344C42.8516 47.2344 41.7969 46.9688 40.9062 46.4375C40.0156 45.8984 39.3242 45.168 38.832 44.2461C38.3477 43.3164 38.1055 42.2695 38.1055 41.1055V40.6133C38.1055 39.2695 38.3594 38.1094 38.8672 37.1328C39.3828 36.1562 40.0703 35.4062 40.9297 34.8828C41.7969 34.3516 42.7422 34.0859 43.7656 34.0859C44.9844 34.0859 45.9844 34.3555 46.7656 34.8945C47.5547 35.4258 48.1406 36.1602 48.5234 37.0977C48.9062 38.0273 49.0977 39.0938 49.0977 40.2969V41.4102H39.4531V39.4883H46.5547V39.2891C46.5312 38.7578 46.4258 38.2539 46.2383 37.7773C46.0586 37.293 45.7695 36.8984 45.3711 36.5938C44.9727 36.2891 44.4336 36.1367 43.7539 36.1367C43.1211 36.1367 42.5703 36.3164 42.1016 36.6758C41.6406 37.0352 41.2852 37.5508 41.0352 38.2227C40.7852 38.8867 40.6602 39.6836 40.6602 40.6133V41.1055C40.6602 41.8633 40.8008 42.5508 41.082 43.168C41.3633 43.7852 41.7695 44.2773 42.3008 44.6445C42.8398 45.0039 43.4805 45.1836 44.2227 45.1836C44.9414 45.1836 45.5625 45.0391 46.0859 44.75C46.6172 44.4609 47.0781 44.0586 47.4688 43.543L48.8984 44.832C48.5 45.4414 47.9102 45.9961 47.1289 46.4961C46.3477 46.9883 45.3281 47.2344 44.0703 47.2344ZM58.5312 34.3203H61.25L56.1758 48.9453C56.0586 49.2578 55.9023 49.5938 55.707 49.9531C55.5195 50.3203 55.2773 50.668 54.9805 50.9961C54.6836 51.332 54.3164 51.6016 53.8789 51.8047C53.4492 52.0156 52.9297 52.1211 52.3203 52.1211C52.1797 52.1211 52.0273 52.1094 51.8633 52.0859C51.6992 52.0703 51.543 52.0469 51.3945 52.0156C51.2461 51.9844 51.1172 51.9531 51.0078 51.9219V49.9297C51.0781 49.9375 51.1758 49.9453 51.3008 49.9531C51.4258 49.9688 51.5195 49.9766 51.582 49.9766C52.293 49.9766 52.8398 49.8359 53.2227 49.5547C53.6133 49.2812 53.9219 48.8008 54.1484 48.1133L55.0625 45.6523L58.5312 34.3203ZM55.9766 43.9297L56.5156 46.6602L54.7227 47.2695L50.0938 34.3203H52.8711L55.9766 43.9297ZM63.5469 42.0547L63.3125 29.9375H66.0078L65.7734 42.0547H63.5469ZM64.707 47.1523C64.2383 47.1523 63.875 47.0195 63.6172 46.7539C63.3672 46.4805 63.2422 46.1484 63.2422 45.7578C63.2422 45.3594 63.3672 45.0234 63.6172 44.75C63.875 44.4766 64.2383 44.3398 64.707 44.3398C65.1758 44.3398 65.5391 44.4766 65.7969 44.75C66.0625 45.0234 66.1953 45.3594 66.1953 45.7578C66.1953 46.1484 66.0625 46.4805 65.7969 46.7539C65.5391 47.0195 65.1758 47.1523 64.707 47.1523Z" fill="white"/>
<path d="M16.3007 19.8879C17.7272 19.3876 17.6283 19.4162 19.2773 19.0339C24.2588 17.8793 30.4238 17.2767 39.3586 17.0953C43.9384 17.0022 45.9438 17.0139 53.2069 17.176C61.6052 17.3633 65.8307 17.5195 69.9773 17.7944C74.6916 18.1071 78.2358 18.6102 80.8686 19.3492C83.5037 20.0887 85.1324 21.0391 86.1225 22.1774C87.3969 23.6428 87.8248 25.7781 87.1144 28.7494C86.2121 32.5236 83.4211 37.2129 78.8759 42.3577C77.5898 43.8134 76.8407 44.8756 75.8832 46.5982C74.3166 49.4168 73.3941 52.0067 72.8023 55.2462C72.4328 57.2692 72.3203 58.7195 72.3825 60.6796C72.4533 62.9067 72.661 64.2679 73.2811 66.608C73.6054 67.8318 73.9484 68.9598 74.2077 69.6289C74.7226 70.9581 75.4019 72.3507 76.1458 73.6243C76.0621 73.5938 75.9812 73.5649 75.9051 73.5356C72.3394 72.1643 69.3116 69.7634 67.164 66.6038C66.5457 65.6941 65.6697 64.0576 65.3639 63.2585C65.2528 62.9686 65.1024 62.5965 65.027 62.4275L64.9108 62.1662L64.4817 61.204L63.543 61.6833L62.5228 62.2041C61.4015 62.7765 59.2684 63.7177 57.8113 64.2807C56.3578 64.8422 51.9708 66.07 50.4458 66.3422C44.7756 67.3542 40.1051 67.3726 35.0142 66.418C29.5294 65.3896 24.9595 63.7913 20.6725 61.4154C18.5327 60.2296 17.7371 59.7163 16.2711 58.5885C12.5847 55.7523 9.9587 52.4209 8.29643 48.5078C8.11018 48.0694 7.76751 46.9948 7.43796 45.8392C7.1092 44.6863 6.82749 43.5716 6.74517 43.0644C6.0437 38.7411 6.20382 34.8822 7.22185 31.1149C7.76332 29.1112 8.31583 27.7595 9.2765 26.0718C10.3266 24.2268 11.2509 22.9907 12.3041 22.0671C13.3496 21.1502 14.5767 20.4927 16.3007 19.8879Z" stroke="url(#paint0_linear_179_64)" stroke-width="2"/>
<defs>
<linearGradient id="paint0_linear_179_64" x1="40.6966" y1="11.8119" x2="60.3034" y2="80.4778" gradientUnits="userSpaceOnUse">
<stop stop-color="#1100FF" stop-opacity="0.8"/>
<stop offset="1" stop-color="#FF00F2" stop-opacity="0.6"/>
</linearGradient>
</defs>
</svg>
