<svg width="59" height="59" viewBox="0 0 59 59" fill="none" xmlns="http://www.w3.org/2000/svg">
<circle cx="29.0678" cy="29.0678" r="29.0678" fill="url(#paint0_linear_179_51)"/>
<g clip-path="url(#clip0_179_51)">
<path d="M20.7245 43.7151H15.0614V25.6055H20.7245V43.7151ZM17.8899 23.1352C16.0795 23.1352 14.6104 21.6458 14.6104 19.8475C14.6104 18.9836 14.9559 18.155 15.5709 17.5442C16.186 16.9333 17.0201 16.5901 17.8899 16.5901C18.7597 16.5901 19.5939 16.9333 20.2089 17.5442C20.824 18.155 21.1695 18.9836 21.1695 19.8475C21.1695 21.6458 19.7004 23.1352 17.8899 23.1352ZM41.9138 43.7151H36.2629V34.8995C36.2629 32.7985 36.2202 30.1041 33.3186 30.1041C30.3743 30.1041 29.9232 32.3868 29.9232 34.7481V43.7151H24.2662V25.6055H29.6976V28.0758H29.7769C30.5328 26.653 32.3798 25.1514 35.1352 25.1514C40.8653 25.1514 41.9199 28.8993 41.9199 33.7672V43.7151H41.9138Z" fill="white"/>
</g>
<defs>
<linearGradient id="paint0_linear_179_51" x1="29.0678" y1="0" x2="29.0678" y2="58.1356" gradientUnits="userSpaceOnUse">
<stop stop-color="#1100FF" stop-opacity="0.8"/>
<stop offset="1" stop-color="#FF00F2" stop-opacity="0.6"/>
</linearGradient>
<clipPath id="clip0_179_51">
<rect width="27.3095" height="31" fill="white" transform="translate(14.6104 14.3218)"/>
</clipPath>
</defs>
</svg>
