<svg width="59" height="59" viewBox="0 0 59 59" fill="none" xmlns="http://www.w3.org/2000/svg">
<circle cx="29.0678" cy="29.0678" r="29.0678" fill="url(#paint0_linear_179_45)"/>
<path d="M35.9893 37.4467L35.9505 39.7121L35.7954 46.2398V46.5086C24.435 36.9475 22.4964 34.6052 22.1862 33.9141V33.8757C22.1475 33.7605 22.1475 33.6069 22.1475 33.4533C22.1475 33.4149 22.1475 33.3381 22.1862 33.2997C22.1862 33.2613 22.225 33.2229 22.225 33.1845C22.3413 32.8773 22.5352 32.5701 22.729 32.3398C22.8841 32.1478 23.0392 31.9558 23.2331 31.8022C23.6208 31.4182 24.0473 31.0726 24.4738 30.7655C24.7065 30.6119 24.9391 30.4583 25.1717 30.2663C25.637 29.9591 26.141 29.6519 26.6839 29.3447C30.755 33.0309 35.9505 37.3699 35.9893 37.4467Z" fill="url(#paint1_linear_179_45)"/>
<path d="M35.9893 16.0566L35.9509 18.3291L35.9126 19.4461L35.8742 21.7185L35.8359 22.874L35.7976 25.1465C35.7209 25.185 30.5829 27.1493 26.6719 29.4603C26.1351 29.7685 25.6367 30.0766 25.1766 30.3847C24.9465 30.5388 24.7164 30.6929 24.4864 30.8854C24.0646 31.1936 23.6428 31.5402 23.2594 31.9254C23.0677 32.118 22.9143 32.272 22.7609 32.4646C22.4159 32.9268 22.1858 33.3505 22.1475 33.7742L22.1858 31.8869V31.5787V31.4632L22.2241 30.2692L22.3008 27.8812L22.3392 26.7257L22.4159 24.3762C23.2211 21.1023 34.6473 16.5959 35.9893 16.0566Z" fill="white"/>
<path d="M25.4695 18.825C27.3193 18.825 28.7915 17.3185 28.7915 15.5029C28.7915 13.6488 27.3193 12.1809 25.4695 12.1809C23.6197 12.1809 22.1475 13.6874 22.1475 15.5029C22.1475 17.3571 23.6197 18.825 25.4695 18.825Z" fill="white"/>
<defs>
<linearGradient id="paint0_linear_179_45" x1="29.0678" y1="0" x2="29.0678" y2="58.1356" gradientUnits="userSpaceOnUse">
<stop stop-color="#1100FF" stop-opacity="0.8"/>
<stop offset="1" stop-color="#FF00F2" stop-opacity="0.6"/>
</linearGradient>
<linearGradient id="paint1_linear_179_45" x1="33.5792" y1="40.9328" x2="20.523" y2="25.4695" gradientUnits="userSpaceOnUse">
<stop offset="0.1" stop-color="white"/>
<stop offset="1" stop-color="white"/>
</linearGradient>
</defs>
</svg>
