<svg width="49" height="49" viewBox="0 0 49 49" fill="none" xmlns="http://www.w3.org/2000/svg">
<path d="M31.0059 32.4635L30.9671 34.729L30.812 41.2566V41.5254C19.4516 31.9644 17.513 29.6221 17.2028 28.9309V28.8925C17.1641 28.7773 17.1641 28.6237 17.1641 28.4701C17.1641 28.4317 17.1641 28.3549 17.2028 28.3165C17.2028 28.2781 17.2416 28.2398 17.2416 28.2014C17.3579 27.8942 17.5518 27.587 17.7457 27.3566C17.9007 27.1646 18.0558 26.9726 18.2497 26.819C18.6374 26.4351 19.0639 26.0895 19.4904 25.7823C19.7231 25.6287 19.9557 25.4751 20.1883 25.2831C20.6536 24.9759 21.1576 24.6688 21.7005 24.3616C25.7716 28.0478 30.9671 32.3867 31.0059 32.4635Z" fill="url(#paint0_linear_344_16)"/>
<path d="M31.0059 11.0735L30.9675 13.3459L30.9292 14.4629L30.8908 16.7354L30.8525 17.8909L30.8142 20.1633C30.7375 20.2019 25.5995 22.1662 21.6885 24.4772C21.1517 24.7853 20.6533 25.0934 20.1932 25.4016C19.9631 25.5556 19.733 25.7097 19.503 25.9023C19.0812 26.2104 18.6594 26.5571 18.276 26.9422C18.0843 27.1348 17.9309 27.2889 17.7775 27.4815C17.4325 27.9437 17.2024 28.3673 17.1641 28.791L17.2024 26.9037V26.5956V26.48L17.2407 25.286L17.3174 22.898L17.3558 21.7425L17.4325 19.393C18.2377 16.1191 29.6639 11.6127 31.0059 11.0735Z" fill="white"/>
<path d="M20.4861 13.8418C22.3359 13.8418 23.8081 12.3353 23.8081 10.5198C23.8081 8.66563 22.3359 7.19775 20.4861 7.19775C18.6363 7.19775 17.1641 8.70426 17.1641 10.5198C17.1641 12.3739 18.6363 13.8418 20.4861 13.8418Z" fill="white"/>
<defs>
<linearGradient id="paint0_linear_344_16" x1="28.5958" y1="35.9497" x2="15.5396" y2="20.4864" gradientUnits="userSpaceOnUse">
<stop offset="0.1" stop-color="white"/>
<stop offset="1" stop-color="white"/>
</linearGradient>
</defs>
</svg>
