<svg width="432" height="87" viewBox="0 0 432 87" fill="none" xmlns="http://www.w3.org/2000/svg">
<mask id="path-1-outside-1_179_58" maskUnits="userSpaceOnUse" x="-0.926758" y="-0.680664" width="433" height="87" fill="black">
<rect fill="white" x="-0.926758" y="-0.680664" width="433" height="87"/>
<path d="M42.1494 66.3193H8.35547V59.4639H42.1494V66.3193ZM10.0254 66.3193H1.5V2.33496H10.0254V66.3193ZM37.667 36.7002H8.35547V29.8447H37.667V36.7002ZM41.71 9.23438H8.35547V2.33496H41.71V9.23438ZM67.374 36.1289L77.833 18.7705H87.4131L71.9004 42.2373L87.8965 66.3193H78.4482L67.5059 48.4336L56.6074 66.3193H47.0273L63.0674 42.2373L47.5107 18.7705H57.0029L67.374 36.1289ZM117.823 67.1982C114.776 67.1982 112.096 66.7002 109.781 65.7041C107.467 64.708 105.504 63.2725 103.893 61.3975C102.281 59.4932 100.992 57.2227 100.025 54.5859C99.0879 51.9199 98.4434 48.917 98.0918 45.5771V40.4795C98.5605 35.8213 99.5713 31.8076 101.124 28.4385C102.706 25.0693 104.859 22.4766 107.584 20.6602C110.338 18.8145 113.707 17.8916 117.691 17.8916C121.676 17.8916 125.045 18.9023 127.799 20.9238C130.553 22.9453 132.647 25.7871 134.083 29.4492C135.519 33.082 136.236 37.3154 136.236 42.1494V43.0723C136.236 47.7012 135.519 51.832 134.083 55.4648C132.647 59.0977 130.553 61.9688 127.799 64.0781C125.074 66.1582 121.749 67.1982 117.823 67.1982ZM96.0264 84.6006V18.7705H103.497L104.244 27.9111V84.6006H96.0264ZM115.318 60.6064C118.248 60.6064 120.65 59.8008 122.525 58.1895C124.4 56.5781 125.777 54.4541 126.656 51.8174C127.564 49.1514 128.019 46.2363 128.019 43.0723V42.1494C128.019 38.9854 127.564 36.085 126.656 33.4482C125.777 30.7822 124.386 28.6582 122.481 27.0762C120.606 25.4941 118.189 24.7031 115.23 24.7031C113.209 24.7031 111.451 25.0547 109.957 25.7578C108.463 26.4609 107.188 27.4131 106.134 28.6143C105.079 29.7861 104.215 31.1338 103.541 32.6572C102.896 34.1514 102.413 35.7041 102.091 37.3154V48.7852C102.677 50.8359 103.482 52.7695 104.508 54.5859C105.562 56.373 106.954 57.8232 108.683 58.9365C110.44 60.0498 112.652 60.6064 115.318 60.6064ZM166.339 67.1982C161.915 67.1982 158.062 66.2168 154.781 64.2539C151.529 62.2617 148.995 59.5371 147.179 56.0801C145.392 52.623 144.498 48.668 144.498 44.2148V42.3252C144.498 37.1689 145.479 32.7744 147.442 29.1416C149.435 25.4795 152.013 22.6963 155.177 20.792C158.37 18.8584 161.739 17.8916 165.284 17.8916C169.854 17.8916 173.575 18.917 176.446 20.9678C179.347 22.9893 181.471 25.7578 182.818 29.2734C184.195 32.7598 184.884 36.7148 184.884 41.1387V44.7861H149.376V38.1943H176.666V37.5791C176.549 35.4697 176.124 33.4189 175.392 31.4268C174.659 29.4053 173.487 27.75 171.876 26.4609C170.265 25.1426 168.067 24.4834 165.284 24.4834C162.823 24.4834 160.641 25.1865 158.736 26.5928C156.861 27.9697 155.382 29.9912 154.298 32.6572C153.243 35.2939 152.716 38.5166 152.716 42.3252V44.2148C152.716 47.2324 153.272 49.9863 154.386 52.4766C155.499 54.9375 157.11 56.915 159.22 58.4092C161.329 59.874 163.849 60.6064 166.778 60.6064C169.649 60.6064 172.081 60.0205 174.073 58.8486C176.065 57.6768 177.809 56.1094 179.303 54.1465L184.269 58.0137C182.745 60.3574 180.548 62.4814 177.677 64.3857C174.835 66.2607 171.056 67.1982 166.339 67.1982ZM202.594 66.3193H194.376V18.7705H202.374L202.594 26.2412V66.3193ZM217.403 26.0215C216.7 25.875 216.041 25.7871 215.426 25.7578C214.84 25.6992 214.166 25.6699 213.404 25.6699C210.914 25.6699 208.805 26.1826 207.076 27.208C205.377 28.2334 204.059 29.6543 203.121 31.4707C202.184 33.2578 201.598 35.3086 201.363 37.623L199.034 38.9414C199.034 35.1035 199.547 31.6025 200.572 28.4385C201.598 25.2451 203.194 22.6963 205.362 20.792C207.56 18.8584 210.372 17.8916 213.8 17.8916C214.356 17.8916 215.016 17.9648 215.777 18.1113C216.568 18.2285 217.11 18.3604 217.403 18.5068V26.0215ZM229.928 1.5C231.51 1.5 232.711 1.9541 233.531 2.8623C234.381 3.77051 234.806 4.86914 234.806 6.1582C234.806 7.41797 234.381 8.50195 233.531 9.41016C232.711 10.2891 231.51 10.7285 229.928 10.7285C228.346 10.7285 227.145 10.2891 226.324 9.41016C225.533 8.50195 225.138 7.41797 225.138 6.1582C225.138 4.86914 225.533 3.77051 226.324 2.8623C227.145 1.9541 228.346 1.5 229.928 1.5ZM234.059 66.3193H225.885V18.7705H234.059V66.3193ZM267.149 67.1982C262.726 67.1982 258.873 66.2168 255.592 64.2539C252.34 62.2617 249.806 59.5371 247.989 56.0801C246.202 52.623 245.309 48.668 245.309 44.2148V42.3252C245.309 37.1689 246.29 32.7744 248.253 29.1416C250.245 25.4795 252.823 22.6963 255.987 20.792C259.181 18.8584 262.55 17.8916 266.095 17.8916C270.665 17.8916 274.386 18.917 277.257 20.9678C280.157 22.9893 282.281 25.7578 283.629 29.2734C285.006 32.7598 285.694 36.7148 285.694 41.1387V44.7861H250.187V38.1943H277.477V37.5791C277.359 35.4697 276.935 33.4189 276.202 31.4268C275.47 29.4053 274.298 27.75 272.687 26.4609C271.075 25.1426 268.878 24.4834 266.095 24.4834C263.634 24.4834 261.451 25.1865 259.547 26.5928C257.672 27.9697 256.192 29.9912 255.108 32.6572C254.054 35.2939 253.526 38.5166 253.526 42.3252V44.2148C253.526 47.2324 254.083 49.9863 255.196 52.4766C256.31 54.9375 257.921 56.915 260.03 58.4092C262.14 59.874 264.659 60.6064 267.589 60.6064C270.46 60.6064 272.892 60.0205 274.884 58.8486C276.876 57.6768 278.619 56.1094 280.113 54.1465L285.079 58.0137C283.556 60.3574 281.358 62.4814 278.487 64.3857C275.646 66.2607 271.866 67.1982 267.149 67.1982ZM303.404 66.3193H295.187V18.7705H302.965L303.404 28.9219V66.3193ZM298.043 40.5674C298.102 36.2314 298.937 32.3643 300.548 28.9658C302.159 25.5381 304.4 22.8428 307.271 20.8799C310.172 18.8877 313.541 17.8916 317.379 17.8916C320.514 17.8916 323.209 18.4775 325.465 19.6494C327.75 20.792 329.508 22.623 330.738 25.1426C331.998 27.6621 332.628 31.002 332.628 35.1621V66.3193H324.41V35.0742C324.41 32.584 324.044 30.5771 323.312 29.0537C322.608 27.5303 321.554 26.4316 320.147 25.7578C318.741 25.0547 317.013 24.7031 314.962 24.7031C312.94 24.7031 311.109 25.1279 309.469 25.9775C307.828 26.8271 306.407 27.999 305.206 29.4932C304.005 30.9873 303.082 32.7012 302.438 34.6348C301.793 36.5391 301.471 38.5605 301.471 40.6992L298.043 40.5674ZM364.005 67.1982C359.229 67.1982 355.274 66.1143 352.14 63.9463C349.005 61.749 346.661 58.8486 345.108 55.2451C343.585 51.6416 342.823 47.7158 342.823 43.4678V41.6221C342.823 37.3447 343.6 33.4189 345.152 29.8447C346.705 26.2412 349.049 23.3555 352.184 21.1875C355.318 18.9902 359.259 17.8916 364.005 17.8916C367.726 17.8916 370.978 18.6533 373.761 20.1768C376.573 21.6709 378.771 23.7217 380.353 26.3291C381.964 28.9072 382.843 31.8369 382.989 35.1182H375.211C375.064 33.1553 374.508 31.3682 373.541 29.7568C372.604 28.1455 371.314 26.8711 369.674 25.9336C368.062 24.9668 366.173 24.4834 364.005 24.4834C360.694 24.4834 358.087 25.333 356.183 27.0322C354.308 28.7314 352.975 30.8994 352.184 33.5361C351.422 36.1436 351.041 38.8389 351.041 41.6221V43.4678C351.041 46.251 351.422 48.9609 352.184 51.5977C352.945 54.2344 354.264 56.4023 356.139 58.1016C358.043 59.7715 360.665 60.6064 364.005 60.6064C365.938 60.6064 367.726 60.2109 369.366 59.4199C371.007 58.5996 372.354 57.4863 373.409 56.0801C374.464 54.6738 375.064 53.0771 375.211 51.29H382.989C382.843 54.1025 381.891 56.7246 380.133 59.1562C378.375 61.5586 376.09 63.5068 373.277 65.001C370.465 66.4658 367.374 67.1982 364.005 67.1982ZM411.905 67.1982C407.481 67.1982 403.629 66.2168 400.348 64.2539C397.096 62.2617 394.562 59.5371 392.745 56.0801C390.958 52.623 390.064 48.668 390.064 44.2148V42.3252C390.064 37.1689 391.046 32.7744 393.009 29.1416C395.001 25.4795 397.579 22.6963 400.743 20.792C403.937 18.8584 407.306 17.8916 410.851 17.8916C415.421 17.8916 419.142 18.917 422.013 20.9678C424.913 22.9893 427.037 25.7578 428.385 29.2734C429.762 32.7598 430.45 36.7148 430.45 41.1387V44.7861H394.942V38.1943H422.232V37.5791C422.115 35.4697 421.69 33.4189 420.958 31.4268C420.226 29.4053 419.054 27.75 417.442 26.4609C415.831 25.1426 413.634 24.4834 410.851 24.4834C408.39 24.4834 406.207 25.1865 404.303 26.5928C402.428 27.9697 400.948 29.9912 399.864 32.6572C398.81 35.2939 398.282 38.5166 398.282 42.3252V44.2148C398.282 47.2324 398.839 49.9863 399.952 52.4766C401.065 54.9375 402.677 56.915 404.786 58.4092C406.896 59.874 409.415 60.6064 412.345 60.6064C415.216 60.6064 417.647 60.0205 419.64 58.8486C421.632 57.6768 423.375 56.1094 424.869 54.1465L429.835 58.0137C428.312 60.3574 426.114 62.4814 423.243 64.3857C420.401 66.2607 416.622 67.1982 411.905 67.1982Z"/>
</mask>
<path d="M42.1494 66.3193V67.8193H43.6494V66.3193H42.1494ZM8.35547 66.3193H6.85547V67.8193H8.35547V66.3193ZM8.35547 59.4639V57.9639H6.85547V59.4639H8.35547ZM42.1494 59.4639H43.6494V57.9639H42.1494V59.4639ZM10.0254 66.3193V67.8193H11.5254V66.3193H10.0254ZM1.5 66.3193H0V67.8193H1.5V66.3193ZM1.5 2.33496V0.834961H0V2.33496H1.5ZM10.0254 2.33496H11.5254V0.834961H10.0254V2.33496ZM37.667 36.7002V38.2002H39.167V36.7002H37.667ZM8.35547 36.7002H6.85547V38.2002H8.35547V36.7002ZM8.35547 29.8447V28.3447H6.85547V29.8447H8.35547ZM37.667 29.8447H39.167V28.3447H37.667V29.8447ZM41.71 9.23438V10.7344H43.21V9.23438H41.71ZM8.35547 9.23438H6.85547V10.7344H8.35547V9.23438ZM8.35547 2.33496V0.834961H6.85547V2.33496H8.35547ZM41.71 2.33496H43.21V0.834961H41.71V2.33496ZM42.1494 66.3193V64.8193H8.35547V66.3193V67.8193H42.1494V66.3193ZM8.35547 66.3193H9.85547V59.4639H8.35547H6.85547V66.3193H8.35547ZM8.35547 59.4639V60.9639H42.1494V59.4639V57.9639H8.35547V59.4639ZM42.1494 59.4639H40.6494V66.3193H42.1494H43.6494V59.4639H42.1494ZM10.0254 66.3193V64.8193H1.5V66.3193V67.8193H10.0254V66.3193ZM1.5 66.3193H3V2.33496H1.5H0V66.3193H1.5ZM1.5 2.33496V3.83496H10.0254V2.33496V0.834961H1.5V2.33496ZM10.0254 2.33496H8.52539V66.3193H10.0254H11.5254V2.33496H10.0254ZM37.667 36.7002V35.2002H8.35547V36.7002V38.2002H37.667V36.7002ZM8.35547 36.7002H9.85547V29.8447H8.35547H6.85547V36.7002H8.35547ZM8.35547 29.8447V31.3447H37.667V29.8447V28.3447H8.35547V29.8447ZM37.667 29.8447H36.167V36.7002H37.667H39.167V29.8447H37.667ZM41.71 9.23438V7.73438H8.35547V9.23438V10.7344H41.71V9.23438ZM8.35547 9.23438H9.85547V2.33496H8.35547H6.85547V9.23438H8.35547ZM8.35547 2.33496V3.83496H41.71V2.33496V0.834961H8.35547V2.33496ZM41.71 2.33496H40.21V9.23438H41.71H43.21V2.33496H41.71ZM67.374 36.1289L66.0863 36.8983L67.3686 39.0444L68.6588 36.903L67.374 36.1289ZM77.833 18.7705V17.2705H76.9856L76.5482 17.9964L77.833 18.7705ZM87.4131 18.7705L88.6644 19.5977L90.2028 17.2705H87.4131V18.7705ZM71.9004 42.2373L70.6491 41.4101L70.101 42.2393L70.6509 43.0672L71.9004 42.2373ZM87.8965 66.3193V67.8193H90.6936L89.146 65.4894L87.8965 66.3193ZM78.4482 66.3193L77.1687 67.1021L77.6075 67.8193H78.4482V66.3193ZM67.5059 48.4336L68.7854 47.6508L67.5033 45.5551L66.2249 47.6531L67.5059 48.4336ZM56.6074 66.3193V67.8193H57.4499L57.8884 67.0999L56.6074 66.3193ZM47.0273 66.3193L45.7789 65.4878L44.226 67.8193H47.0273V66.3193ZM63.0674 42.2373L64.3158 43.0688L64.8683 42.2393L64.3176 41.4085L63.0674 42.2373ZM47.5107 18.7705V17.2705H44.7167L46.2605 19.5993L47.5107 18.7705ZM57.0029 18.7705L58.2906 18.0012L57.8541 17.2705H57.0029V18.7705ZM67.374 36.1289L68.6588 36.903L79.1178 19.5446L77.833 18.7705L76.5482 17.9964L66.0892 35.3548L67.374 36.1289ZM77.833 18.7705V20.2705H87.4131V18.7705V17.2705H77.833V18.7705ZM87.4131 18.7705L86.1618 17.9433L70.6491 41.4101L71.9004 42.2373L73.1517 43.0645L88.6644 19.5977L87.4131 18.7705ZM71.9004 42.2373L70.6509 43.0672L86.647 67.1493L87.8965 66.3193L89.146 65.4894L73.1499 41.4074L71.9004 42.2373ZM87.8965 66.3193V64.8193H78.4482V66.3193V67.8193H87.8965V66.3193ZM78.4482 66.3193L79.7278 65.5365L68.7854 47.6508L67.5059 48.4336L66.2263 49.2164L77.1687 67.1021L78.4482 66.3193ZM67.5059 48.4336L66.2249 47.6531L55.3265 65.5388L56.6074 66.3193L57.8884 67.0999L68.7868 49.2141L67.5059 48.4336ZM56.6074 66.3193V64.8193H47.0273V66.3193V67.8193H56.6074V66.3193ZM47.0273 66.3193L48.2758 67.1509L64.3158 43.0688L63.0674 42.2373L61.819 41.4058L45.7789 65.4878L47.0273 66.3193ZM63.0674 42.2373L64.3176 41.4085L48.761 17.9417L47.5107 18.7705L46.2605 19.5993L61.8172 43.0661L63.0674 42.2373ZM47.5107 18.7705V20.2705H57.0029V18.7705V17.2705H47.5107V18.7705ZM57.0029 18.7705L55.7153 19.5399L66.0863 36.8983L67.374 36.1289L68.6617 35.3596L58.2906 18.0012L57.0029 18.7705ZM109.781 65.7041L109.188 67.0819L109.781 65.7041ZM103.893 61.3975L102.747 62.3664L102.755 62.3751L103.893 61.3975ZM100.025 54.5859L98.6103 55.0835L98.6136 55.0929L98.6171 55.1023L100.025 54.5859ZM98.0918 45.5771H96.5918V45.6559L96.6 45.7342L98.0918 45.5771ZM98.0918 40.4795L96.5993 40.3293L96.5918 40.4042V40.4795H98.0918ZM101.124 28.4385L99.7662 27.8009L99.7617 27.8106L101.124 28.4385ZM107.584 20.6602L108.416 21.9082L108.419 21.9062L107.584 20.6602ZM134.083 29.4492L132.686 29.9967L132.688 30.0005L134.083 29.4492ZM127.799 64.0781L128.709 65.2704L128.711 65.2689L127.799 64.0781ZM96.0264 84.6006H94.5264V86.1006H96.0264V84.6006ZM96.0264 18.7705V17.2705H94.5264V18.7705H96.0264ZM103.497 18.7705L104.992 18.6483L104.879 17.2705H103.497V18.7705ZM104.244 27.9111H105.744V27.8499L105.739 27.7889L104.244 27.9111ZM104.244 84.6006V86.1006H105.744V84.6006H104.244ZM126.656 51.8174L125.236 51.3337L125.233 51.343L126.656 51.8174ZM126.656 33.4482L125.232 33.9179L125.235 33.9273L125.238 33.9367L126.656 33.4482ZM122.481 27.0762L121.514 28.2226L121.523 28.23L122.481 27.0762ZM106.134 28.6143L107.249 29.6177L107.255 29.6109L107.261 29.604L106.134 28.6143ZM103.541 32.6572L102.169 32.0504L102.164 32.0631L103.541 32.6572ZM102.091 37.3154L100.62 37.0213L100.591 37.1669V37.3154H102.091ZM102.091 48.7852H100.591V48.9952L100.649 49.1972L102.091 48.7852ZM104.508 54.5859L103.202 55.3233L103.209 55.3359L103.216 55.3483L104.508 54.5859ZM108.683 58.9365L107.87 60.1976L107.88 60.2038L108.683 58.9365ZM117.823 67.1982V65.6982C114.939 65.6982 112.467 65.2268 110.374 64.3263L109.781 65.7041L109.188 67.0819C111.725 68.1736 114.614 68.6982 117.823 68.6982V67.1982ZM109.781 65.7041L110.374 64.3263C108.265 63.4186 106.49 62.1183 105.03 60.4198L103.893 61.3975L102.755 62.3751C104.518 64.4266 106.668 65.9974 109.188 67.0819L109.781 65.7041ZM103.893 61.3975L105.038 60.4286C103.553 58.6743 102.348 56.5618 101.434 54.0696L100.025 54.5859L98.6171 55.1023C99.6369 57.8836 101.009 60.312 102.747 62.3664L103.893 61.3975ZM100.025 54.5859L101.44 54.0883C100.548 51.5508 99.9251 48.6649 99.5836 45.4201L98.0918 45.5771L96.6 45.7342C96.9616 49.1691 97.6276 52.289 98.6103 55.0835L100.025 54.5859ZM98.0918 45.5771H99.5918V40.4795H98.0918H96.5918V45.5771H98.0918ZM98.0918 40.4795L99.5843 40.6297C100.041 36.0954 101.019 32.2509 102.486 29.0663L101.124 28.4385L99.7617 27.8106C98.124 31.3643 97.0806 35.5471 96.5993 40.3293L98.0918 40.4795ZM101.124 28.4385L102.482 29.076C103.964 25.92 105.949 23.553 108.416 21.9082L107.584 20.6602L106.752 19.4121C103.77 21.4001 101.448 24.2187 99.7663 27.8009L101.124 28.4385ZM107.584 20.6602L108.419 21.9062C110.88 20.257 113.943 19.3916 117.691 19.3916V17.8916V16.3916C113.471 16.3916 109.796 17.3719 106.749 19.4141L107.584 20.6602ZM117.691 17.8916V19.3916C121.411 19.3916 124.456 20.3306 126.911 22.133L127.799 20.9238L128.686 19.7146C125.634 17.4741 121.94 16.3916 117.691 16.3916V17.8916ZM127.799 20.9238L126.911 22.133C129.403 23.9623 131.339 26.5579 132.686 29.9967L134.083 29.4492L135.48 28.9018C133.956 25.0163 131.702 21.9283 128.686 19.7146L127.799 20.9238ZM134.083 29.4492L132.688 30.0005C134.04 33.4215 134.736 37.4608 134.736 42.1494H136.236H137.736C137.736 37.17 136.997 32.7425 135.478 28.898L134.083 29.4492ZM136.236 42.1494H134.736V43.0723H136.236H137.736V42.1494H136.236ZM136.236 43.0723H134.736C134.736 47.5467 134.043 51.4855 132.688 54.9136L134.083 55.4648L135.478 56.0161C136.994 52.1785 137.736 47.8557 137.736 43.0723H136.236ZM134.083 55.4648L132.688 54.9136C131.34 58.326 129.398 60.9635 126.887 62.8873L127.799 64.0781L128.711 65.2689C131.707 62.974 133.955 59.8693 135.478 56.0161L134.083 55.4648ZM127.799 64.0781L126.889 62.8859C124.463 64.738 121.47 65.6982 117.823 65.6982V67.1982V68.6982C122.028 68.6982 125.686 67.5784 128.709 65.2704L127.799 64.0781ZM96.0264 84.6006H97.5264V18.7705H96.0264H94.5264V84.6006H96.0264ZM96.0264 18.7705V20.2705H103.497V18.7705V17.2705H96.0264V18.7705ZM103.497 18.7705L102.002 18.8927L102.749 28.0333L104.244 27.9111L105.739 27.7889L104.992 18.6483L103.497 18.7705ZM104.244 27.9111H102.744V84.6006H104.244H105.744V27.9111H104.244ZM104.244 84.6006V83.1006H96.0264V84.6006V86.1006H104.244V84.6006ZM115.318 60.6064V62.1064C118.537 62.1064 121.307 61.214 123.503 59.3271L122.525 58.1895L121.548 57.0518C119.993 58.3876 117.959 59.1064 115.318 59.1064V60.6064ZM122.525 58.1895L123.503 59.3271C125.608 57.5178 127.126 55.153 128.079 52.2917L126.656 51.8174L125.233 51.343C124.429 53.7552 123.192 55.6385 121.548 57.0518L122.525 58.1895ZM126.656 51.8174L128.076 52.3011C129.043 49.4614 129.519 46.3808 129.519 43.0723H128.019H126.519C126.519 46.0919 126.085 48.8414 125.236 51.3337L126.656 51.8174ZM128.019 43.0723H129.519V42.1494H128.019H126.519V43.0723H128.019ZM128.019 42.1494H129.519C129.519 38.8412 129.044 35.7732 128.074 32.9597L126.656 33.4482L125.238 33.9367C126.085 36.3967 126.519 39.1295 126.519 42.1494H128.019ZM126.656 33.4482L128.081 32.9786C127.126 30.082 125.589 27.7074 123.44 25.9224L122.481 27.0762L121.523 28.23C123.183 29.609 124.429 31.4824 125.232 33.9179L126.656 33.4482ZM122.481 27.0762L123.449 25.9297C121.25 24.0747 118.467 23.2031 115.23 23.2031V24.7031V26.2031C117.911 26.2031 119.963 26.9136 121.514 28.2226L122.481 27.0762ZM115.23 24.7031V23.2031C113.037 23.2031 111.052 23.5848 109.318 24.4006L109.957 25.7578L110.596 27.115C111.85 26.5246 113.381 26.2031 115.23 26.2031V24.7031ZM109.957 25.7578L109.318 24.4006C107.644 25.1884 106.202 26.2635 105.007 27.6246L106.134 28.6143L107.261 29.604C108.175 28.5627 109.282 27.7335 110.596 27.115L109.957 25.7578ZM106.134 28.6143L105.019 27.6108C103.852 28.907 102.904 30.3903 102.169 32.0505L103.541 32.6572L104.913 33.264C105.526 31.8773 106.306 30.6652 107.249 29.6177L106.134 28.6143ZM103.541 32.6572L102.164 32.0631C101.477 33.6546 100.963 35.308 100.62 37.0213L102.091 37.3154L103.562 37.6096C103.864 36.1002 104.316 34.6481 104.918 33.2514L103.541 32.6572ZM102.091 37.3154H100.591V48.7852H102.091H103.591V37.3154H102.091ZM102.091 48.7852L100.649 49.1972C101.266 51.3589 102.117 53.4019 103.202 55.3233L104.508 54.5859L105.814 53.8485C104.848 52.1372 104.087 50.313 103.533 48.3731L102.091 48.7852ZM104.508 54.5859L103.216 55.3483C104.388 57.3348 105.943 58.9565 107.87 60.1976L108.683 58.9365L109.495 57.6755C107.965 56.69 106.737 55.4113 105.8 53.8236L104.508 54.5859ZM108.683 58.9365L107.88 60.2038C109.937 61.5064 112.447 62.1064 115.318 62.1064V60.6064V59.1064C112.858 59.1064 110.944 58.5932 109.485 57.6693L108.683 58.9365ZM154.781 64.2539L153.998 65.533L154.004 65.5371L154.011 65.5412L154.781 64.2539ZM147.179 56.0801L145.846 56.7689L145.851 56.7778L147.179 56.0801ZM147.442 29.1416L146.125 28.4248L146.123 28.4285L147.442 29.1416ZM155.177 20.792L155.95 22.0772L155.954 22.0751L155.177 20.792ZM176.446 20.9678L175.574 22.1884L175.581 22.1934L175.589 22.1984L176.446 20.9678ZM182.818 29.2734L181.418 29.8103L181.42 29.8174L181.423 29.8245L182.818 29.2734ZM184.884 44.7861V46.2861H186.384V44.7861H184.884ZM149.376 44.7861H147.876V46.2861H149.376V44.7861ZM149.376 38.1943V36.6943H147.876V38.1943H149.376ZM176.666 38.1943V39.6943H178.166V38.1943H176.666ZM176.666 37.5791H178.166V37.5375L178.164 37.4959L176.666 37.5791ZM175.392 31.4268L173.981 31.9377L173.984 31.9444L175.392 31.4268ZM171.876 26.4609L170.926 27.6219L170.932 27.6271L170.939 27.6322L171.876 26.4609ZM158.736 26.5928L159.624 27.8018L159.627 27.7994L158.736 26.5928ZM154.298 32.6572L152.908 32.0922L152.905 32.1001L154.298 32.6572ZM154.386 52.4766L153.016 53.0888L153.019 53.0948L154.386 52.4766ZM159.22 58.4092L158.353 59.6333L158.364 59.6412L159.22 58.4092ZM179.303 54.1465L180.224 52.963L179.028 52.0312L178.109 53.238L179.303 54.1465ZM184.269 58.0137L185.526 58.8312L186.277 57.6764L185.19 56.8302L184.269 58.0137ZM177.677 64.3857L178.503 65.6378L178.506 65.6358L177.677 64.3857ZM166.339 67.1982V65.6982C162.143 65.6982 158.565 64.7697 155.551 62.9667L154.781 64.2539L154.011 65.5412C157.56 67.6639 161.687 68.6982 166.339 68.6982V67.1982ZM154.781 64.2539L155.565 62.9748C152.549 61.1274 150.2 58.6062 148.507 55.3824L147.179 56.0801L145.851 56.7778C147.79 60.4681 150.509 63.3961 153.998 65.533L154.781 64.2539ZM147.179 56.0801L148.511 55.3913C146.849 52.1761 145.998 48.4631 145.998 44.2148H144.498H142.998C142.998 48.8729 143.934 53.07 145.846 56.7689L147.179 56.0801ZM144.498 44.2148H145.998V42.3252H144.498H142.998V44.2148H144.498ZM144.498 42.3252H145.998C145.998 37.357 146.943 33.2205 148.762 29.8547L147.442 29.1416L146.123 28.4285C144.016 32.3283 142.998 36.9809 142.998 42.3252H144.498ZM147.442 29.1416L148.76 29.8584C150.641 26.3999 153.043 23.8268 155.95 22.0772L155.177 20.792L154.403 19.5068C150.982 21.5658 148.228 24.559 146.125 28.4248L147.442 29.1416ZM155.177 20.792L155.954 22.0751C158.926 20.2755 162.028 19.3916 165.284 19.3916V17.8916V16.3916C161.451 16.3916 157.815 17.4413 154.4 19.5089L155.177 20.792ZM165.284 17.8916V19.3916C169.634 19.3916 173.024 20.3664 175.574 22.1884L176.446 20.9678L177.318 19.7472C174.127 17.4676 170.075 16.3916 165.284 16.3916V17.8916ZM176.446 20.9678L175.589 22.1984C178.226 24.0368 180.17 26.5559 181.418 29.8103L182.818 29.2734L184.219 28.7365C182.771 24.9597 180.467 21.9417 177.304 19.7372L176.446 20.9678ZM182.818 29.2734L181.423 29.8245C182.72 33.1068 183.384 36.8701 183.384 41.1387H184.884H186.384C186.384 36.5596 185.671 32.4127 184.213 28.7224L182.818 29.2734ZM184.884 41.1387H183.384V44.7861H184.884H186.384V41.1387H184.884ZM184.884 44.7861V43.2861H149.376V44.7861V46.2861H184.884V44.7861ZM149.376 44.7861H150.876V38.1943H149.376H147.876V44.7861H149.376ZM149.376 38.1943V39.6943H176.666V38.1943V36.6943H149.376V38.1943ZM176.666 38.1943H178.166V37.5791H176.666H175.166V38.1943H176.666ZM176.666 37.5791L178.164 37.4959C178.038 35.2374 177.583 33.0402 176.799 30.9092L175.392 31.4268L173.984 31.9444C174.665 33.7977 175.059 35.7021 175.168 37.6623L176.666 37.5791ZM175.392 31.4268L176.802 30.9158C175.98 28.6463 174.649 26.7585 172.813 25.2896L171.876 26.4609L170.939 27.6322C172.326 28.7415 173.339 30.1643 173.981 31.9377L175.392 31.4268ZM171.876 26.4609L172.826 25.3C170.868 23.6982 168.297 22.9834 165.284 22.9834V24.4834V25.9834C167.838 25.9834 169.661 26.5869 170.926 27.6219L171.876 26.4609ZM165.284 24.4834V22.9834C162.516 22.9834 160.018 23.7814 157.845 25.3861L158.736 26.5928L159.627 27.7994C161.263 26.5916 163.13 25.9834 165.284 25.9834V24.4834ZM158.736 26.5928L157.848 25.3838C155.702 26.9598 154.072 29.2301 152.908 32.0923L154.298 32.6572L155.687 33.2222C156.692 30.7524 158.02 28.9797 159.624 27.8018L158.736 26.5928ZM154.298 32.6572L152.905 32.1001C151.76 34.9632 151.216 38.3871 151.216 42.3252H152.716H154.216C154.216 38.6461 154.726 35.6247 155.691 33.2143L154.298 32.6572ZM152.716 42.3252H151.216V44.2148H152.716H154.216V42.3252H152.716ZM152.716 44.2148H151.216C151.216 47.4208 151.808 50.3863 153.016 53.0888L154.386 52.4766L155.755 51.8644C154.737 49.5863 154.216 47.044 154.216 44.2148H152.716ZM154.386 52.4766L153.019 53.0948C154.237 55.7871 156.016 57.978 158.353 59.6332L159.22 58.4092L160.087 57.1851C158.205 55.852 156.761 54.0879 155.752 51.8583L154.386 52.4766ZM159.22 58.4092L158.364 59.6412C160.759 61.3043 163.587 62.1064 166.778 62.1064V60.6064V59.1064C164.11 59.1064 161.899 58.4437 160.075 57.1771L159.22 58.4092ZM166.778 60.6064V62.1064C169.853 62.1064 172.561 61.4782 174.834 60.1415L174.073 58.8486L173.313 57.5557C171.601 58.5628 169.446 59.1064 166.778 59.1064V60.6064ZM174.073 58.8486L174.834 60.1415C177.005 58.8644 178.892 57.1624 180.496 55.055L179.303 54.1465L178.109 53.238C176.725 55.0564 175.126 56.4892 173.313 57.5557L174.073 58.8486ZM179.303 54.1465L178.381 55.3299L183.347 59.1971L184.269 58.0137L185.19 56.8302L180.224 52.963L179.303 54.1465ZM184.269 58.0137L183.011 57.1962C181.622 59.3329 179.586 61.3191 176.848 63.1357L177.677 64.3857L178.506 65.6358C181.509 63.6437 183.868 61.3819 185.526 58.8312L184.269 58.0137ZM177.677 64.3857L176.851 63.1337C174.332 64.7958 170.871 65.6982 166.339 65.6982V67.1982V68.6982C171.24 68.6982 175.338 67.7257 178.503 65.6378L177.677 64.3857ZM202.594 66.3193V67.8193H204.094V66.3193H202.594ZM194.376 66.3193H192.876V67.8193H194.376V66.3193ZM194.376 18.7705V17.2705H192.876V18.7705H194.376ZM202.374 18.7705L203.873 18.7264L203.831 17.2705H202.374V18.7705ZM202.594 26.2412H204.094V26.2192L204.093 26.1971L202.594 26.2412ZM217.403 26.0215L217.097 27.49L218.903 27.8662V26.0215H217.403ZM215.426 25.7578L215.277 27.2504L215.315 27.2543L215.354 27.2561L215.426 25.7578ZM207.076 27.208L206.311 25.9179L206.301 25.9237L207.076 27.208ZM203.121 31.4707L204.449 32.1675L204.454 32.1587L203.121 31.4707ZM201.363 37.623L202.102 38.9284L202.777 38.5462L202.856 37.7742L201.363 37.623ZM199.034 38.9414H197.534V41.5141L199.773 40.2468L199.034 38.9414ZM200.572 28.4385L201.999 28.9009L202 28.8971L200.572 28.4385ZM205.362 20.792L206.352 21.919L206.353 21.9181L205.362 20.792ZM215.777 18.1113L215.494 19.5843L215.526 19.5904L215.558 19.5951L215.777 18.1113ZM217.403 18.5068H218.903V17.5798L218.074 17.1652L217.403 18.5068ZM202.594 66.3193V64.8193H194.376V66.3193V67.8193H202.594V66.3193ZM194.376 66.3193H195.876V18.7705H194.376H192.876V66.3193H194.376ZM194.376 18.7705V20.2705H202.374V18.7705V17.2705H194.376V18.7705ZM202.374 18.7705L200.875 18.8146L201.094 26.2853L202.594 26.2412L204.093 26.1971L203.873 18.7264L202.374 18.7705ZM202.594 26.2412H201.094V66.3193H202.594H204.094V26.2412H202.594ZM217.403 26.0215L217.709 24.553C216.941 24.393 216.203 24.2931 215.497 24.2595L215.426 25.7578L215.354 27.2561C215.879 27.2811 216.459 27.357 217.097 27.49L217.403 26.0215ZM215.426 25.7578L215.575 24.2653C214.928 24.2005 214.202 24.1699 213.404 24.1699V25.6699V27.1699C214.13 27.1699 214.752 27.1979 215.277 27.2504L215.426 25.7578ZM213.404 25.6699V24.1699C210.709 24.1699 208.32 24.7258 206.311 25.9179L207.076 27.208L207.841 28.4981C209.289 27.6394 211.119 27.1699 213.404 27.1699V25.6699ZM207.076 27.208L206.301 25.9237C204.357 27.0969 202.849 28.7276 201.788 30.7827L203.121 31.4707L204.454 32.1587C205.268 30.581 206.397 29.3699 207.851 28.4923L207.076 27.208ZM203.121 31.4707L201.793 30.7739C200.754 32.7546 200.122 34.9956 199.871 37.4719L201.363 37.623L202.856 37.7742C203.074 35.6216 203.613 33.761 204.449 32.1675L203.121 31.4707ZM201.363 37.623L200.624 36.3177L198.295 37.636L199.034 38.9414L199.773 40.2468L202.102 38.9284L201.363 37.623ZM199.034 38.9414H200.534C200.534 35.2369 201.029 31.8946 201.999 28.9009L200.572 28.4385L199.145 27.976C198.065 31.3104 197.534 34.9702 197.534 38.9414H199.034ZM200.572 28.4385L202 28.8971C202.957 25.9195 204.419 23.6169 206.352 21.919L205.362 20.792L204.372 19.665C201.969 21.7757 200.239 24.5707 199.144 27.9799L200.572 28.4385ZM205.362 20.792L206.353 21.9181C208.231 20.2658 210.671 19.3916 213.8 19.3916V17.8916V16.3916C210.073 16.3916 206.888 17.451 204.371 19.6659L205.362 20.792ZM213.8 17.8916V19.3916C214.232 19.3916 214.792 19.4494 215.494 19.5843L215.777 18.1113L216.061 16.6383C215.239 16.4803 214.48 16.3916 213.8 16.3916V17.8916ZM215.777 18.1113L215.558 19.5951C215.925 19.6496 216.211 19.704 216.423 19.7556C216.649 19.8107 216.733 19.8486 216.732 19.8485L217.403 18.5068L218.074 17.1652C217.544 16.9 216.783 16.744 215.997 16.6275L215.777 18.1113ZM217.403 18.5068H215.903V26.0215H217.403H218.903V18.5068H217.403ZM233.531 2.8623L232.418 3.86773L232.427 3.87746L232.436 3.88704L233.531 2.8623ZM233.531 9.41016L232.436 8.38542L232.435 8.38668L233.531 9.41016ZM226.324 9.41016L225.193 10.3953L225.21 10.4148L225.228 10.4336L226.324 9.41016ZM226.324 2.8623L225.211 1.85687L225.202 1.86692L225.193 1.87713L226.324 2.8623ZM234.059 66.3193V67.8193H235.559V66.3193H234.059ZM225.885 66.3193H224.385V67.8193H225.885V66.3193ZM225.885 18.7705V17.2705H224.385V18.7705H225.885ZM234.059 18.7705H235.559V17.2705H234.059V18.7705ZM229.928 1.5V3C231.217 3 231.96 3.36051 232.418 3.86773L233.531 2.8623L234.644 1.85687C233.462 0.547691 231.802 0 229.928 0V1.5ZM233.531 2.8623L232.436 3.88704C233.015 4.50633 233.306 5.23432 233.306 6.1582H234.806H236.306C236.306 4.50397 235.747 3.03468 234.627 1.83757L233.531 2.8623ZM234.806 6.1582H233.306C233.306 7.04292 233.022 7.75909 232.436 8.38542L233.531 9.41016L234.627 10.4349C235.74 9.24482 236.306 7.79302 236.306 6.1582H234.806ZM233.531 9.41016L232.435 8.38668C231.98 8.87373 231.232 9.22852 229.928 9.22852V10.7285V12.2285C231.788 12.2285 233.442 11.7044 234.628 10.4336L233.531 9.41016ZM229.928 10.7285V9.22852C228.624 9.22852 227.875 8.87373 227.421 8.38668L226.324 9.41016L225.228 10.4336C226.414 11.7044 228.068 12.2285 229.928 12.2285V10.7285ZM226.324 9.41016L227.455 8.42499C226.914 7.80327 226.638 7.07399 226.638 6.1582H225.138H223.638C223.638 7.76195 224.153 9.20063 225.193 10.3953L226.324 9.41016ZM225.138 6.1582H226.638C226.638 5.20368 226.92 4.46246 227.455 3.84748L226.324 2.8623L225.193 1.87713C224.147 3.07856 223.638 4.5346 223.638 6.1582H225.138ZM226.324 2.8623L227.437 3.86773C227.896 3.36051 228.638 3 229.928 3V1.5V0C228.053 0 226.394 0.547691 225.211 1.85687L226.324 2.8623ZM234.059 66.3193V64.8193H225.885V66.3193V67.8193H234.059V66.3193ZM225.885 66.3193H227.385V18.7705H225.885H224.385V66.3193H225.885ZM225.885 18.7705V20.2705H234.059V18.7705V17.2705H225.885V18.7705ZM234.059 18.7705H232.559V66.3193H234.059H235.559V18.7705H234.059ZM255.592 64.2539L254.808 65.533L254.815 65.5371L254.822 65.5412L255.592 64.2539ZM247.989 56.0801L246.657 56.7689L246.661 56.7778L247.989 56.0801ZM248.253 29.1416L246.935 28.4248L246.933 28.4285L248.253 29.1416ZM255.987 20.792L256.761 22.0772L256.764 22.0751L255.987 20.792ZM277.257 20.9678L276.385 22.1884L276.392 22.1934L276.399 22.1984L277.257 20.9678ZM283.629 29.2734L282.228 29.8103L282.231 29.8174L282.234 29.8245L283.629 29.2734ZM285.694 44.7861V46.2861H287.194V44.7861H285.694ZM250.187 44.7861H248.687V46.2861H250.187V44.7861ZM250.187 38.1943V36.6943H248.687V38.1943H250.187ZM277.477 38.1943V39.6943H278.977V38.1943H277.477ZM277.477 37.5791H278.977V37.5375L278.974 37.4959L277.477 37.5791ZM276.202 31.4268L274.792 31.9377L274.794 31.9444L276.202 31.4268ZM272.687 26.4609L271.737 27.6219L271.743 27.6271L271.749 27.6322L272.687 26.4609ZM259.547 26.5928L260.435 27.8018L260.438 27.7994L259.547 26.5928ZM255.108 32.6572L253.719 32.0922L253.716 32.1001L255.108 32.6572ZM255.196 52.4766L253.827 53.0888L253.83 53.0948L255.196 52.4766ZM260.03 58.4092L259.163 59.6333L259.175 59.6412L260.03 58.4092ZM280.113 54.1465L281.035 52.963L279.838 52.0312L278.92 53.238L280.113 54.1465ZM285.079 58.0137L286.337 58.8312L287.087 57.6764L286.001 56.8302L285.079 58.0137ZM278.487 64.3857L279.313 65.6378L279.316 65.6358L278.487 64.3857ZM267.149 67.1982V65.6982C262.954 65.6982 259.376 64.7697 256.362 62.9667L255.592 64.2539L254.822 65.5412C258.37 67.6639 262.498 68.6982 267.149 68.6982V67.1982ZM255.592 64.2539L256.375 62.9748C253.36 61.1274 251.011 58.6062 249.317 55.3824L247.989 56.0801L246.661 56.7778C248.6 60.4681 251.32 63.3961 254.808 65.533L255.592 64.2539ZM247.989 56.0801L249.322 55.3913C247.66 52.1761 246.809 48.4631 246.809 44.2148H245.309H243.809C243.809 48.8729 244.745 53.07 246.657 56.7689L247.989 56.0801ZM245.309 44.2148H246.809V42.3252H245.309H243.809V44.2148H245.309ZM245.309 42.3252H246.809C246.809 37.357 247.754 33.2205 249.573 29.8547L248.253 29.1416L246.933 28.4285C244.826 32.3283 243.809 36.9809 243.809 42.3252H245.309ZM248.253 29.1416L249.571 29.8584C251.452 26.3999 253.854 23.8268 256.761 22.0772L255.987 20.792L255.214 19.5068C251.793 21.5658 249.038 24.559 246.935 28.4248L248.253 29.1416ZM255.987 20.792L256.764 22.0751C259.736 20.2755 262.839 19.3916 266.095 19.3916V17.8916V16.3916C262.261 16.3916 258.625 17.4413 255.21 19.5089L255.987 20.792ZM266.095 17.8916V19.3916C270.444 19.3916 273.834 20.3664 276.385 22.1884L277.257 20.9678L278.129 19.7472C274.937 17.4676 270.886 16.3916 266.095 16.3916V17.8916ZM277.257 20.9678L276.399 22.1984C279.037 24.0368 280.981 26.5559 282.228 29.8103L283.629 29.2734L285.03 28.7365C283.582 24.9597 281.278 21.9417 278.115 19.7372L277.257 20.9678ZM283.629 29.2734L282.234 29.8245C283.53 33.1068 284.194 36.8701 284.194 41.1387H285.694H287.194C287.194 36.5596 286.482 32.4127 285.024 28.7224L283.629 29.2734ZM285.694 41.1387H284.194V44.7861H285.694H287.194V41.1387H285.694ZM285.694 44.7861V43.2861H250.187V44.7861V46.2861H285.694V44.7861ZM250.187 44.7861H251.687V38.1943H250.187H248.687V44.7861H250.187ZM250.187 38.1943V39.6943H277.477V38.1943V36.6943H250.187V38.1943ZM277.477 38.1943H278.977V37.5791H277.477H275.977V38.1943H277.477ZM277.477 37.5791L278.974 37.4959C278.849 35.2374 278.393 33.0402 277.61 30.9092L276.202 31.4268L274.794 31.9444C275.476 33.7977 275.87 35.7021 275.979 37.6623L277.477 37.5791ZM276.202 31.4268L277.612 30.9158C276.79 28.6463 275.46 26.7585 273.624 25.2896L272.687 26.4609L271.749 27.6322C273.136 28.7415 274.149 30.1643 274.792 31.9377L276.202 31.4268ZM272.687 26.4609L273.636 25.3C271.679 23.6982 269.107 22.9834 266.095 22.9834V24.4834V25.9834C268.649 25.9834 270.472 26.5869 271.737 27.6219L272.687 26.4609ZM266.095 24.4834V22.9834C263.327 22.9834 260.829 23.7814 258.656 25.3861L259.547 26.5928L260.438 27.7994C262.074 26.5916 263.941 25.9834 266.095 25.9834V24.4834ZM259.547 26.5928L258.659 25.3838C256.513 26.9598 254.883 29.2301 253.719 32.0923L255.108 32.6572L256.498 33.2222C257.502 30.7524 258.831 28.9797 260.435 27.8018L259.547 26.5928ZM255.108 32.6572L253.716 32.1001C252.57 34.9632 252.026 38.3871 252.026 42.3252H253.526H255.026C255.026 38.6461 255.537 35.6247 256.501 33.2143L255.108 32.6572ZM253.526 42.3252H252.026V44.2148H253.526H255.026V42.3252H253.526ZM253.526 44.2148H252.026C252.026 47.4208 252.619 50.3863 253.827 53.0888L255.196 52.4766L256.566 51.8644C255.547 49.5863 255.026 47.044 255.026 44.2148H253.526ZM255.196 52.4766L253.83 53.0948C255.048 55.7871 256.827 57.978 259.163 59.6332L260.03 58.4092L260.897 57.1851C259.015 55.852 257.572 54.0879 256.563 51.8583L255.196 52.4766ZM260.03 58.4092L259.175 59.6412C261.57 61.3043 264.398 62.1064 267.589 62.1064V60.6064V59.1064C264.92 59.1064 262.71 58.4437 260.886 57.1771L260.03 58.4092ZM267.589 60.6064V62.1064C270.663 62.1064 273.372 61.4782 275.644 60.1415L274.884 58.8486L274.123 57.5557C272.411 58.5628 270.257 59.1064 267.589 59.1064V60.6064ZM274.884 58.8486L275.644 60.1415C277.816 58.8644 279.703 57.1624 281.307 55.055L280.113 54.1465L278.92 53.238C277.536 55.0564 275.936 56.4892 274.123 57.5557L274.884 58.8486ZM280.113 54.1465L279.192 55.3299L284.157 59.1971L285.079 58.0137L286.001 56.8302L281.035 52.963L280.113 54.1465ZM285.079 58.0137L283.821 57.1962C282.433 59.3329 280.397 61.3191 277.658 63.1357L278.487 64.3857L279.316 65.6358C282.32 63.6437 284.679 61.3819 286.337 58.8312L285.079 58.0137ZM278.487 64.3857L277.661 63.1337C275.142 64.7958 271.682 65.6982 267.149 65.6982V67.1982V68.6982C272.051 68.6982 276.149 67.7257 279.313 65.6378L278.487 64.3857ZM303.404 66.3193V67.8193H304.904V66.3193H303.404ZM295.187 66.3193H293.687V67.8193H295.187V66.3193ZM295.187 18.7705V17.2705H293.687V18.7705H295.187ZM302.965 18.7705L304.463 18.7056L304.401 17.2705H302.965V18.7705ZM303.404 28.9219H304.904V28.8894L304.903 28.857L303.404 28.9219ZM298.043 40.5674L296.543 40.5471L296.523 42.01L297.985 42.0663L298.043 40.5674ZM300.548 28.9658L301.903 29.6085L301.905 29.604L300.548 28.9658ZM307.271 20.8799L308.118 22.1182L308.121 22.1163L307.271 20.8799ZM325.465 19.6494L324.773 20.9805L324.784 20.9859L324.794 20.9911L325.465 19.6494ZM330.738 25.1426L329.39 25.8009L329.397 25.8134L330.738 25.1426ZM332.628 66.3193V67.8193H334.128V66.3193H332.628ZM324.41 66.3193H322.91V67.8193H324.41V66.3193ZM323.312 29.0537L321.95 29.6823L321.955 29.693L321.96 29.7037L323.312 29.0537ZM320.147 25.7578L319.477 27.0995L319.488 27.1051L319.499 27.1105L320.147 25.7578ZM302.438 34.6348L303.858 35.1157L303.861 35.1091L302.438 34.6348ZM301.471 40.6992L301.413 42.1981L302.971 42.258V40.6992H301.471ZM303.404 66.3193V64.8193H295.187V66.3193V67.8193H303.404V66.3193ZM295.187 66.3193H296.687V18.7705H295.187H293.687V66.3193H295.187ZM295.187 18.7705V20.2705H302.965V18.7705V17.2705H295.187V18.7705ZM302.965 18.7705L301.466 18.8354L301.906 28.9867L303.404 28.9219L304.903 28.857L304.463 18.7056L302.965 18.7705ZM303.404 28.9219H301.904V66.3193H303.404H304.904V28.9219H303.404ZM298.043 40.5674L299.543 40.5877C299.599 36.4343 300.397 32.7846 301.903 29.6085L300.548 28.9658L299.192 28.3232C297.476 31.9439 296.604 36.0286 296.543 40.5471L298.043 40.5674ZM300.548 28.9658L301.905 29.604C303.413 26.396 305.487 23.9168 308.118 22.1182L307.271 20.8799L306.425 19.6416C303.314 21.7687 300.905 24.6802 299.19 28.3277L300.548 28.9658ZM307.271 20.8799L308.121 22.1163C310.748 20.3114 313.815 19.3916 317.379 19.3916V17.8916V16.3916C313.267 16.3916 309.595 17.464 306.422 19.6435L307.271 20.8799ZM317.379 17.8916V19.3916C320.328 19.3916 322.775 19.9425 324.773 20.9805L325.465 19.6494L326.156 18.3183C323.643 17.0125 320.699 16.3916 317.379 16.3916V17.8916ZM325.465 19.6494L324.794 20.9911C326.756 21.9718 328.29 23.5467 329.39 25.8008L330.738 25.1426L332.086 24.4843C330.726 21.6994 328.744 19.6122 326.136 18.3078L325.465 19.6494ZM330.738 25.1426L329.397 25.8134C330.515 28.0492 331.128 31.1325 331.128 35.1621H332.628H334.128C334.128 30.8714 333.482 27.275 332.08 24.4718L330.738 25.1426ZM332.628 35.1621H331.128V66.3193H332.628H334.128V35.1621H332.628ZM332.628 66.3193V64.8193H324.41V66.3193V67.8193H332.628V66.3193ZM324.41 66.3193H325.91V35.0742H324.41H322.91V66.3193H324.41ZM324.41 35.0742H325.91C325.91 32.4569 325.528 30.2028 324.663 28.4038L323.312 29.0537L321.96 29.7037C322.56 30.9515 322.91 32.7111 322.91 35.0742H324.41ZM323.312 29.0537L324.673 28.4251C323.836 26.6105 322.542 25.2417 320.796 24.4051L320.147 25.7578L319.499 27.1105C320.566 27.6216 321.381 28.4501 321.95 29.6823L323.312 29.0537ZM320.147 25.7578L320.818 24.4162C319.15 23.5822 317.177 23.2031 314.962 23.2031V24.7031V26.2031C316.848 26.2031 318.332 26.5272 319.477 27.0995L320.147 25.7578ZM314.962 24.7031V23.2031C312.723 23.2031 310.652 23.6754 308.779 24.6455L309.469 25.9775L310.159 27.3095C311.566 26.5804 313.157 26.2031 314.962 26.2031V24.7031ZM309.469 25.9775L308.779 24.6455C306.946 25.5947 305.364 26.9028 304.037 28.5533L305.206 29.4932L306.375 30.433C307.451 29.0952 308.71 28.0596 310.159 27.3095L309.469 25.9775ZM305.206 29.4932L304.037 28.5533C302.717 30.1949 301.712 32.0686 301.014 34.1604L302.438 34.6348L303.861 35.1091C304.452 33.3338 305.292 31.7797 306.375 30.433L305.206 29.4932ZM302.438 34.6348L301.017 34.1539C300.316 36.2227 299.971 38.4075 299.971 40.6992H301.471H302.971C302.971 38.7136 303.269 36.8554 303.858 35.1157L302.438 34.6348ZM301.471 40.6992L301.528 39.2003L298.101 39.0685L298.043 40.5674L297.985 42.0663L301.413 42.1981L301.471 40.6992ZM352.14 63.9463L351.279 65.1746L351.286 65.18L352.14 63.9463ZM345.108 55.2451L343.727 55.8292L343.731 55.8387L345.108 55.2451ZM345.152 29.8447L346.528 30.4424L346.53 30.4383L345.152 29.8447ZM352.184 21.1875L353.037 22.4212L353.045 22.4158L352.184 21.1875ZM373.761 20.1768L373.041 21.4925L373.049 21.497L373.057 21.5014L373.761 20.1768ZM380.353 26.3291L379.07 27.1072L379.075 27.1157L379.081 27.1241L380.353 26.3291ZM382.989 35.1182V36.6182H384.558L384.488 35.0513L382.989 35.1182ZM375.211 35.1182L373.715 35.2298L373.819 36.6182H375.211V35.1182ZM373.541 29.7568L372.245 30.5112L372.25 30.5199L372.255 30.5286L373.541 29.7568ZM369.674 25.9336L368.902 27.2198L368.916 27.228L368.93 27.236L369.674 25.9336ZM356.183 27.0322L355.184 25.913L355.175 25.9207L356.183 27.0322ZM352.184 33.5361L350.747 33.1051L350.744 33.1155L352.184 33.5361ZM356.139 58.1016L355.131 59.213L355.14 59.2213L355.15 59.2294L356.139 58.1016ZM369.366 59.4199L370.018 60.7711L370.027 60.7664L370.037 60.7616L369.366 59.4199ZM375.211 51.29V49.79H373.829L373.716 51.1675L375.211 51.29ZM382.989 51.29L384.487 51.3681L384.569 49.79H382.989V51.29ZM380.133 59.1562L381.343 60.042L381.348 60.035L380.133 59.1562ZM373.277 65.001L373.97 66.3314L373.981 66.3257L373.277 65.001ZM364.005 67.1982V65.6982C359.457 65.6982 355.82 64.6678 352.993 62.7126L352.14 63.9463L351.286 65.18C354.729 67.5608 359.002 68.6982 364.005 68.6982V67.1982ZM352.14 63.9463L353.001 62.718C350.099 60.6845 347.932 58.0064 346.486 54.6515L345.108 55.2451L343.731 55.8387C345.391 59.6909 347.91 62.8136 351.279 65.1746L352.14 63.9463ZM345.108 55.2451L346.49 54.661C345.051 51.2577 344.323 47.5325 344.323 43.4678H342.823H341.323C341.323 47.8991 342.119 52.0255 343.727 55.8292L345.108 55.2451ZM342.823 43.4678H344.323V41.6221H342.823H341.323V43.4678H342.823ZM342.823 41.6221H344.323C344.323 37.5301 345.065 33.8103 346.528 30.4424L345.152 29.8447L343.777 29.2471C342.134 33.0276 341.323 37.1593 341.323 41.6221H342.823ZM345.152 29.8447L346.53 30.4383C347.975 27.0851 350.14 24.4243 353.037 22.4212L352.184 21.1875L351.33 19.9538C347.957 22.2867 345.435 25.3973 343.775 29.2511L345.152 29.8447ZM352.184 21.1875L353.045 22.4158C355.872 20.4338 359.492 19.3916 364.005 19.3916V17.8916V16.3916C359.025 16.3916 354.765 17.5466 351.323 19.9592L352.184 21.1875ZM364.005 17.8916V19.3916C367.517 19.3916 370.513 20.1093 373.041 21.4925L373.761 20.1768L374.481 18.861C371.442 17.1973 367.934 16.3916 364.005 16.3916V17.8916ZM373.761 20.1768L373.057 21.5014C375.642 22.8747 377.635 24.7412 379.07 27.1072L380.353 26.3291L381.635 25.551C379.906 22.7022 377.505 20.4671 374.464 18.8521L373.761 20.1768ZM380.353 26.3291L379.081 27.1241C380.544 29.4656 381.355 32.1406 381.491 35.1851L382.989 35.1182L384.488 35.0513C384.331 31.5332 383.384 28.3488 381.625 25.5341L380.353 26.3291ZM382.989 35.1182V33.6182H375.211V35.1182V36.6182H382.989V35.1182ZM375.211 35.1182L376.707 35.0065C376.544 32.8217 375.92 30.8067 374.827 28.9851L373.541 29.7568L372.255 30.5286C373.095 31.9296 373.585 33.4889 373.715 35.2298L375.211 35.1182ZM373.541 29.7568L374.838 29.0025C373.765 27.1599 372.284 25.6978 370.418 24.6312L369.674 25.9336L368.93 27.236C370.344 28.0444 371.442 29.1312 372.245 30.5112L373.541 29.7568ZM369.674 25.9336L370.446 24.6474C368.567 23.5203 366.402 22.9834 364.005 22.9834V24.4834V25.9834C365.943 25.9834 367.558 26.4133 368.902 27.2198L369.674 25.9336ZM364.005 24.4834V22.9834C360.438 22.9834 357.437 23.9029 355.184 25.913L356.183 27.0322L357.181 28.1514C358.737 26.7631 360.95 25.9834 364.005 25.9834V24.4834ZM356.183 27.0322L355.175 25.9207C353.08 27.8194 351.609 30.2305 350.747 33.1051L352.184 33.5361L353.62 33.9672C354.34 31.5683 355.535 29.6435 357.19 28.1437L356.183 27.0322ZM352.184 33.5361L350.744 33.1155C349.941 35.8629 349.541 38.7 349.541 41.6221H351.041H352.541C352.541 38.9777 352.903 36.4242 353.623 33.9568L352.184 33.5361ZM351.041 41.6221H349.541V43.4678H351.041H352.541V41.6221H351.041ZM351.041 43.4678H349.541C349.541 46.3898 349.941 49.24 350.743 52.014L352.184 51.5977L353.625 51.1813C352.903 48.6819 352.541 46.1121 352.541 43.4678H351.041ZM352.184 51.5977L350.743 52.014C351.575 54.8947 353.033 57.3111 355.131 59.213L356.139 58.1016L357.146 56.9901C355.495 55.4936 354.316 53.5741 353.625 51.1813L352.184 51.5977ZM356.139 58.1016L355.15 59.2294C357.405 61.207 360.419 62.1064 364.005 62.1064V60.6064V59.1064C360.911 59.1064 358.681 58.336 357.128 56.9738L356.139 58.1016ZM364.005 60.6064V62.1064C366.15 62.1064 368.161 61.6661 370.018 60.7711L369.366 59.4199L368.715 58.0688C367.29 58.7558 365.727 59.1064 364.005 59.1064V60.6064ZM369.366 59.4199L370.037 60.7616C371.877 59.8418 373.409 58.5808 374.609 56.9801L373.409 56.0801L372.209 55.1801C371.3 56.3919 370.137 57.3574 368.695 58.0783L369.366 59.4199ZM373.409 56.0801L374.609 56.9801C375.837 55.3429 376.537 53.4755 376.706 51.4126L375.211 51.29L373.716 51.1675C373.592 52.6788 373.091 54.0048 372.209 55.1801L373.409 56.0801ZM375.211 51.29V52.79H382.989V51.29V49.79H375.211V51.29ZM382.989 51.29L381.491 51.212C381.361 53.7168 380.517 56.064 378.917 58.2775L380.133 59.1562L381.348 60.035C383.264 57.3853 384.325 54.4882 384.487 51.3681L382.989 51.29ZM380.133 59.1562L378.922 58.2705C377.307 60.4776 375.2 62.2808 372.574 63.6763L373.277 65.001L373.981 66.3257C376.979 64.7329 379.443 62.6396 381.343 60.042L380.133 59.1562ZM373.277 65.001L372.584 63.6706C369.999 65.0171 367.148 65.6982 364.005 65.6982V67.1982V68.6982C367.6 68.6982 370.93 67.9146 373.97 66.3313L373.277 65.001ZM400.348 64.2539L399.564 65.533L399.571 65.5371L399.578 65.5412L400.348 64.2539ZM392.745 56.0801L391.413 56.7689L391.417 56.7778L392.745 56.0801ZM393.009 29.1416L391.691 28.4248L391.689 28.4285L393.009 29.1416ZM400.743 20.792L401.517 22.0772L401.52 22.0751L400.743 20.792ZM422.013 20.9678L421.141 22.1884L421.148 22.1934L421.155 22.1984L422.013 20.9678ZM428.385 29.2734L426.984 29.8103L426.987 29.8174L426.99 29.8245L428.385 29.2734ZM430.45 44.7861V46.2861H431.95V44.7861H430.45ZM394.942 44.7861H393.442V46.2861H394.942V44.7861ZM394.942 38.1943V36.6943H393.442V38.1943H394.942ZM422.232 38.1943V39.6943H423.732V38.1943H422.232ZM422.232 37.5791H423.732V37.5375L423.73 37.4959L422.232 37.5791ZM420.958 31.4268L419.548 31.9377L419.55 31.9444L420.958 31.4268ZM417.442 26.4609L416.493 27.6219L416.499 27.6271L416.505 27.6322L417.442 26.4609ZM404.303 26.5928L405.191 27.8018L405.194 27.7994L404.303 26.5928ZM399.864 32.6572L398.475 32.0922L398.472 32.1001L399.864 32.6572ZM399.952 52.4766L398.583 53.0888L398.585 53.0948L399.952 52.4766ZM404.786 58.4092L403.919 59.6333L403.931 59.6412L404.786 58.4092ZM424.869 54.1465L425.791 52.963L424.594 52.0312L423.676 53.238L424.869 54.1465ZM429.835 58.0137L431.093 58.8312L431.843 57.6764L430.757 56.8302L429.835 58.0137ZM423.243 64.3857L424.069 65.6378L424.072 65.6358L423.243 64.3857ZM411.905 67.1982V65.6982C407.709 65.6982 404.132 64.7697 401.118 62.9667L400.348 64.2539L399.578 65.5412C403.126 67.6639 407.253 68.6982 411.905 68.6982V67.1982ZM400.348 64.2539L401.131 62.9748C398.116 61.1274 395.767 58.6062 394.073 55.3824L392.745 56.0801L391.417 56.7778C393.356 60.4681 396.076 63.3961 399.564 65.533L400.348 64.2539ZM392.745 56.0801L394.078 55.3913C392.415 52.1761 391.564 48.4631 391.564 44.2148H390.064H388.564C388.564 48.8729 389.501 53.07 391.413 56.7689L392.745 56.0801ZM390.064 44.2148H391.564V42.3252H390.064H388.564V44.2148H390.064ZM390.064 42.3252H391.564C391.564 37.357 392.51 33.2205 394.328 29.8547L393.009 29.1416L391.689 28.4285C389.582 32.3283 388.564 36.9809 388.564 42.3252H390.064ZM393.009 29.1416L394.326 29.8584C396.208 26.3999 398.61 23.8268 401.517 22.0772L400.743 20.792L399.97 19.5068C396.549 21.5658 393.794 24.559 391.691 28.4248L393.009 29.1416ZM400.743 20.792L401.52 22.0751C404.492 20.2755 407.594 19.3916 410.851 19.3916V17.8916V16.3916C407.017 16.3916 403.381 17.4413 399.966 19.5089L400.743 20.792ZM410.851 17.8916V19.3916C415.2 19.3916 418.59 20.3664 421.141 22.1884L422.013 20.9678L422.885 19.7472C419.693 17.4676 415.641 16.3916 410.851 16.3916V17.8916ZM422.013 20.9678L421.155 22.1984C423.793 24.0368 425.737 26.5559 426.984 29.8103L428.385 29.2734L429.785 28.7365C428.338 24.9597 426.033 21.9417 422.87 19.7372L422.013 20.9678ZM428.385 29.2734L426.99 29.8245C428.286 33.1068 428.95 36.8701 428.95 41.1387H430.45H431.95C431.95 36.5596 431.237 32.4127 429.78 28.7224L428.385 29.2734ZM430.45 41.1387H428.95V44.7861H430.45H431.95V41.1387H430.45ZM430.45 44.7861V43.2861H394.942V44.7861V46.2861H430.45V44.7861ZM394.942 44.7861H396.442V38.1943H394.942H393.442V44.7861H394.942ZM394.942 38.1943V39.6943H422.232V38.1943V36.6943H394.942V38.1943ZM422.232 38.1943H423.732V37.5791H422.232H420.732V38.1943H422.232ZM422.232 37.5791L423.73 37.4959C423.605 35.2374 423.149 33.0402 422.366 30.9092L420.958 31.4268L419.55 31.9444C420.232 33.7977 420.626 35.7021 420.735 37.6623L422.232 37.5791ZM420.958 31.4268L422.368 30.9158C421.546 28.6463 420.216 26.7585 418.379 25.2896L417.442 26.4609L416.505 27.6322C417.892 28.7415 418.905 30.1643 419.548 31.9377L420.958 31.4268ZM417.442 26.4609L418.392 25.3C416.435 23.6982 413.863 22.9834 410.851 22.9834V24.4834V25.9834C413.405 25.9834 415.228 26.5869 416.493 27.6219L417.442 26.4609ZM410.851 24.4834V22.9834C408.082 22.9834 405.585 23.7814 403.412 25.3861L404.303 26.5928L405.194 27.7994C406.829 26.5916 408.697 25.9834 410.851 25.9834V24.4834ZM404.303 26.5928L403.415 25.3838C401.269 26.9598 399.638 29.2301 398.475 32.0923L399.864 32.6572L401.254 33.2222C402.258 30.7524 403.587 28.9797 405.191 27.8018L404.303 26.5928ZM399.864 32.6572L398.472 32.1001C397.326 34.9632 396.782 38.3871 396.782 42.3252H398.282H399.782C399.782 38.6461 400.293 35.6247 401.257 33.2143L399.864 32.6572ZM398.282 42.3252H396.782V44.2148H398.282H399.782V42.3252H398.282ZM398.282 44.2148H396.782C396.782 47.4208 397.375 50.3863 398.583 53.0888L399.952 52.4766L401.322 51.8644C400.303 49.5863 399.782 47.044 399.782 44.2148H398.282ZM399.952 52.4766L398.585 53.0948C399.803 55.7871 401.582 57.978 403.919 59.6332L404.786 58.4092L405.653 57.1851C403.771 55.852 402.327 54.0879 401.319 51.8583L399.952 52.4766ZM404.786 58.4092L403.931 59.6412C406.325 61.3043 409.154 62.1064 412.345 62.1064V60.6064V59.1064C409.676 59.1064 407.466 58.4437 405.642 57.1771L404.786 58.4092ZM412.345 60.6064V62.1064C415.419 62.1064 418.128 61.4782 420.4 60.1415L419.64 58.8486L418.879 57.5557C417.167 58.5628 415.013 59.1064 412.345 59.1064V60.6064ZM419.64 58.8486L420.4 60.1415C422.571 58.8644 424.459 57.1624 426.063 55.055L424.869 54.1465L423.676 53.238C422.291 55.0564 420.692 56.4892 418.879 57.5557L419.64 58.8486ZM424.869 54.1465L423.948 55.3299L428.913 59.1971L429.835 58.0137L430.757 56.8302L425.791 52.963L424.869 54.1465ZM429.835 58.0137L428.577 57.1962C427.188 59.3329 425.153 61.3191 422.414 63.1357L423.243 64.3857L424.072 65.6358C427.076 63.6437 429.435 61.3819 431.093 58.8312L429.835 58.0137ZM423.243 64.3857L422.417 63.1337C419.898 64.7958 416.438 65.6982 411.905 65.6982V67.1982V68.6982C416.806 68.6982 420.905 67.7257 424.069 65.6378L423.243 64.3857Z" fill="url(#paint0_linear_179_58)" mask="url(#path-1-outside-1_179_58)"/>
<defs>
<linearGradient id="paint0_linear_179_58" x1="-5.92676" y1="38.3193" x2="434.073" y2="38.3193" gradientUnits="userSpaceOnUse">
<stop stop-color="#1100FF"/>
<stop offset="1" stop-color="#FF00F2" stop-opacity="0.6"/>
</linearGradient>
</defs>
</svg>
