<svg width="434" height="92" viewBox="0 0 434 92" fill="none" xmlns="http://www.w3.org/2000/svg">
<mask id="path-1-outside-1_179_60" maskUnits="userSpaceOnUse" x="-0.990234" y="-0.0708008" width="435" height="92" fill="black">
<rect fill="white" x="-0.990234" y="-0.0708008" width="435" height="92"/>
<path d="M9.92236 56.8662V48.1064H31.7095C35.9396 48.1064 39.3462 47.4326 41.9292 46.085C44.5496 44.6999 46.4588 42.8094 47.6567 40.4136C48.8921 38.0177 49.5098 35.285 49.5098 32.2153C49.5098 29.4077 48.8921 26.7686 47.6567 24.2979C46.4588 21.8271 44.5496 19.8244 41.9292 18.2896C39.3462 16.7547 35.9396 15.9873 31.7095 15.9873H12.3931V88.9292H1.49951V7.17139H31.7095C37.8862 7.17139 43.1084 8.23828 47.376 10.3721C51.6436 12.5059 54.8817 15.4445 57.0903 19.188C59.299 22.9315 60.4033 27.2365 60.4033 32.103C60.4033 37.3439 59.299 41.8174 57.0903 45.5234C54.8817 49.2295 51.6436 52.0558 47.376 54.0024C43.1084 55.9116 37.8862 56.8662 31.7095 56.8662H9.92236ZM69.0508 57.9331C69.0508 52.0558 70.1738 46.7962 72.4199 42.1543C74.666 37.5124 77.848 33.8438 81.9658 31.1484C86.0837 28.4157 90.9689 27.0493 96.6216 27.0493C102.349 27.0493 107.291 28.4157 111.446 31.1484C115.601 33.8438 118.783 37.5124 120.992 42.1543C123.238 46.7962 124.361 52.0558 124.361 57.9331V59.2246C124.361 65.0645 123.238 70.3241 120.992 75.0034C118.783 79.6453 115.601 83.314 111.446 86.0093C107.328 88.7046 102.424 90.0522 96.7339 90.0522C91.0438 90.0522 86.1211 88.7046 81.9658 86.0093C77.848 83.314 74.666 79.6453 72.4199 75.0034C70.1738 70.3241 69.0508 65.0645 69.0508 59.2246V57.9331ZM79.5513 59.2246C79.5513 63.2301 80.1877 66.9362 81.4604 70.3428C82.7332 73.7493 84.6237 76.4821 87.1318 78.541C89.6774 80.5999 92.8781 81.6294 96.7339 81.6294C100.552 81.6294 103.715 80.5999 106.224 78.541C108.769 76.4821 110.678 73.7493 111.951 70.3428C113.224 66.9362 113.86 63.2301 113.86 59.2246V57.9331C113.86 53.9276 113.224 50.2215 111.951 46.8149C110.678 43.4084 108.769 40.6756 106.224 38.6167C103.678 36.5203 100.477 35.4722 96.6216 35.4722C92.8407 35.4722 89.6774 36.5203 87.1318 38.6167C84.5863 40.6756 82.6771 43.4084 81.4043 46.8149C80.1689 50.2215 79.5513 53.9276 79.5513 57.9331V59.2246ZM147.945 88.9292H137.444V28.1724H147.664L147.945 37.7183V88.9292ZM166.868 37.4375C165.97 37.2503 165.127 37.138 164.341 37.1006C163.593 37.0257 162.732 36.9883 161.758 36.9883C158.576 36.9883 155.881 37.6434 153.672 38.9536C151.501 40.2638 149.817 42.0794 148.619 44.4004C147.421 46.6839 146.672 49.3044 146.373 52.2617L143.396 53.9463C143.396 49.0423 144.052 44.5688 145.362 40.5259C146.672 36.4455 148.712 33.1886 151.482 30.7554C154.29 28.2847 157.884 27.0493 162.264 27.0493C162.975 27.0493 163.817 27.1429 164.791 27.3301C165.801 27.4798 166.494 27.6483 166.868 27.8354V37.4375ZM204.771 36.0898H171.866V28.1724H204.771V36.0898ZM193.428 13.4043V73.8804C193.428 75.9767 193.746 77.549 194.383 78.5972C195.019 79.6453 195.843 80.3379 196.854 80.6748C197.864 81.0117 198.95 81.1802 200.11 81.1802C200.971 81.1802 201.87 81.1053 202.806 80.9556C203.779 80.8058 204.49 80.6748 204.939 80.5625V88.9292C204.116 89.1912 203.049 89.4346 201.739 89.6592C200.429 89.9212 198.838 90.0522 196.966 90.0522C194.42 90.0522 192.081 89.5469 189.947 88.5361C187.813 87.5254 186.11 85.8408 184.837 83.4824C183.564 81.0866 182.928 77.8672 182.928 73.8242V13.4043H193.428ZM221.954 88.9292V21.7148C221.954 15.2012 223.732 10.2036 227.288 6.72217C230.882 3.24072 235.786 1.5 242 1.5C243.198 1.5 244.396 1.57487 245.594 1.72461C246.792 1.87435 247.971 2.09896 249.131 2.39844L248.57 10.7651C247.784 10.6154 246.885 10.5031 245.875 10.4282C244.901 10.3534 243.928 10.3159 242.955 10.3159C239.66 10.3159 237.077 11.3079 235.206 13.292C233.371 15.2386 232.454 18.0462 232.454 21.7148V88.9292H221.954ZM245.369 36.0898H212.408V28.1724H245.369V36.0898ZM254.129 57.9331C254.129 52.0558 255.252 46.7962 257.498 42.1543C259.744 37.5124 262.926 33.8438 267.044 31.1484C271.162 28.4157 276.047 27.0493 281.7 27.0493C287.427 27.0493 292.369 28.4157 296.524 31.1484C300.679 33.8438 303.861 37.5124 306.07 42.1543C308.316 46.7962 309.439 52.0558 309.439 57.9331V59.2246C309.439 65.0645 308.316 70.3241 306.07 75.0034C303.861 79.6453 300.679 83.314 296.524 86.0093C292.406 88.7046 287.502 90.0522 281.812 90.0522C276.122 90.0522 271.199 88.7046 267.044 86.0093C262.926 83.314 259.744 79.6453 257.498 75.0034C255.252 70.3241 254.129 65.0645 254.129 59.2246V57.9331ZM264.629 59.2246C264.629 63.2301 265.266 66.9362 266.539 70.3428C267.811 73.7493 269.702 76.4821 272.21 78.541C274.756 80.5999 277.956 81.6294 281.812 81.6294C285.63 81.6294 288.794 80.5999 291.302 78.541C293.847 76.4821 295.757 73.7493 297.029 70.3428C298.302 66.9362 298.938 63.2301 298.938 59.2246V57.9331C298.938 53.9276 298.302 50.2215 297.029 46.8149C295.757 43.4084 293.847 40.6756 291.302 38.6167C288.756 36.5203 285.556 35.4722 281.7 35.4722C277.919 35.4722 274.756 36.5203 272.21 38.6167C269.664 40.6756 267.755 43.4084 266.482 46.8149C265.247 50.2215 264.629 53.9276 264.629 57.9331V59.2246ZM333.921 88.9292H323.421V2.6792H333.921V88.9292ZM356.944 6.10449C358.965 6.10449 360.5 6.68473 361.548 7.84521C362.634 9.0057 363.177 10.4095 363.177 12.0566C363.177 13.6663 362.634 15.0514 361.548 16.2119C360.5 17.335 358.965 17.8965 356.944 17.8965C354.922 17.8965 353.388 17.335 352.339 16.2119C351.329 15.0514 350.823 13.6663 350.823 12.0566C350.823 10.4095 351.329 9.0057 352.339 7.84521C353.388 6.68473 354.922 6.10449 356.944 6.10449ZM362.222 88.9292H351.778V28.1724H362.222V88.9292ZM376.541 57.9331C376.541 52.0558 377.664 46.7962 379.91 42.1543C382.156 37.5124 385.338 33.8438 389.456 31.1484C393.574 28.4157 398.459 27.0493 404.112 27.0493C409.839 27.0493 414.781 28.4157 418.936 31.1484C423.091 33.8438 426.273 37.5124 428.482 42.1543C430.728 46.7962 431.851 52.0558 431.851 57.9331V59.2246C431.851 65.0645 430.728 70.3241 428.482 75.0034C426.273 79.6453 423.091 83.314 418.936 86.0093C414.818 88.7046 409.914 90.0522 404.224 90.0522C398.534 90.0522 393.611 88.7046 389.456 86.0093C385.338 83.314 382.156 79.6453 379.91 75.0034C377.664 70.3241 376.541 65.0645 376.541 59.2246V57.9331ZM387.042 59.2246C387.042 63.2301 387.678 66.9362 388.951 70.3428C390.223 73.7493 392.114 76.4821 394.622 78.541C397.168 80.5999 400.368 81.6294 404.224 81.6294C408.042 81.6294 411.206 80.5999 413.714 78.541C416.259 76.4821 418.169 73.7493 419.441 70.3428C420.714 66.9362 421.351 63.2301 421.351 59.2246V57.9331C421.351 53.9276 420.714 50.2215 419.441 46.8149C418.169 43.4084 416.259 40.6756 413.714 38.6167C411.168 36.5203 407.968 35.4722 404.112 35.4722C400.331 35.4722 397.168 36.5203 394.622 38.6167C392.076 40.6756 390.167 43.4084 388.895 46.8149C387.659 50.2215 387.042 53.9276 387.042 57.9331V59.2246Z"/>
</mask>
<path d="M9.92236 56.8662H8.42236V58.3662H9.92236V56.8662ZM9.92236 48.1064V46.6064H8.42236V48.1064H9.92236ZM41.9292 46.085L42.6231 47.4149L42.6302 47.4111L41.9292 46.085ZM47.6567 40.4136L46.3235 39.7261L46.3193 39.7344L46.3151 39.7428L47.6567 40.4136ZM47.6567 24.2979L46.307 24.9523L46.311 24.9605L46.3151 24.9687L47.6567 24.2979ZM41.9292 18.2896L41.1629 19.5791L41.1711 19.5839L41.9292 18.2896ZM12.3931 15.9873V14.4873H10.8931V15.9873H12.3931ZM12.3931 88.9292V90.4292H13.8931V88.9292H12.3931ZM1.49951 88.9292H-0.000488281V90.4292H1.49951V88.9292ZM1.49951 7.17139V5.67139H-0.000488281V7.17139H1.49951ZM57.0903 19.188L58.3822 18.4258L57.0903 19.188ZM57.0903 45.5234L58.3789 46.2914L57.0903 45.5234ZM47.376 54.0024L47.9885 55.3717L47.9985 55.3672L47.376 54.0024ZM9.92236 56.8662H11.4224V48.1064H9.92236H8.42236V56.8662H9.92236ZM9.92236 48.1064V49.6064H31.7095V48.1064V46.6064H9.92236V48.1064ZM31.7095 48.1064V49.6064C36.0797 49.6064 39.751 48.9133 42.623 47.4148L41.9292 46.085L41.2354 44.7551C38.9414 45.9519 35.7995 46.6064 31.7095 46.6064V48.1064ZM41.9292 46.085L42.6302 47.4111C45.4964 45.8961 47.6456 43.7899 48.9984 41.0844L47.6567 40.4136L46.3151 39.7428C45.272 41.8289 43.6029 43.5037 41.2282 44.7588L41.9292 46.085ZM47.6567 40.4136L48.9899 41.101C50.3493 38.4647 51.0098 35.4907 51.0098 32.2153H49.5098H48.0098C48.0098 35.0793 47.4349 37.5707 46.3235 39.7261L47.6567 40.4136ZM49.5098 32.2153H51.0098C51.0098 29.1788 50.3396 26.3095 48.9984 23.627L47.6567 24.2979L46.3151 24.9687C47.4445 27.2276 48.0098 29.6366 48.0098 32.2153H49.5098ZM47.6567 24.2979L49.0065 23.6434C47.6654 20.8776 45.5357 18.6636 42.6873 16.9952L41.9292 18.2896L41.1711 19.5839C43.5636 20.9852 45.2522 22.7767 46.307 24.9523L47.6567 24.2979ZM41.9292 18.2896L42.6954 17C39.8047 15.2824 36.1047 14.4873 31.7095 14.4873V15.9873V17.4873C35.7745 17.4873 38.8877 18.2271 41.163 19.5791L41.9292 18.2896ZM31.7095 15.9873V14.4873H12.3931V15.9873V17.4873H31.7095V15.9873ZM12.3931 15.9873H10.8931V88.9292H12.3931H13.8931V15.9873H12.3931ZM12.3931 88.9292V87.4292H1.49951V88.9292V90.4292H12.3931V88.9292ZM1.49951 88.9292H2.99951V7.17139H1.49951H-0.000488281V88.9292H1.49951ZM1.49951 7.17139V8.67139H31.7095V7.17139V5.67139H1.49951V7.17139ZM31.7095 7.17139V8.67139C37.7196 8.67139 42.698 9.71012 46.7052 11.7137L47.376 10.3721L48.0468 9.03043C43.5188 6.76645 38.0529 5.67139 31.7095 5.67139V7.17139ZM47.376 10.3721L46.7052 11.7137C50.7405 13.7314 53.7509 16.4798 55.7984 19.9502L57.0903 19.188L58.3822 18.4258C56.0125 14.4092 52.5467 11.2804 48.0468 9.03043L47.376 10.3721ZM57.0903 19.188L55.7984 19.9502C57.8551 23.4361 58.9033 27.4717 58.9033 32.103H60.4033H61.9033C61.9033 27.0012 60.7429 22.4269 58.3822 18.4258L57.0903 19.188ZM60.4033 32.103H58.9033C58.9033 37.1316 57.8451 41.327 55.8018 44.7555L57.0903 45.5234L58.3789 46.2914C60.7529 42.3078 61.9033 37.5562 61.9033 32.103H60.4033ZM57.0903 45.5234L55.8018 44.7555C53.763 48.1766 50.7689 50.8061 46.7535 52.6377L47.376 54.0024L47.9985 55.3672C52.5182 53.3055 56.0003 50.2824 58.3789 46.2914L57.0903 45.5234ZM47.376 54.0024L46.7634 52.6332C42.7399 54.4332 37.7397 55.3662 31.7095 55.3662V56.8662V58.3662C38.0328 58.3662 43.4769 57.39 47.9885 55.3717L47.376 54.0024ZM31.7095 56.8662V55.3662H9.92236V56.8662V58.3662H31.7095V56.8662ZM81.9658 31.1484L82.7873 32.4035L82.7952 32.3983L81.9658 31.1484ZM111.446 31.1484L110.622 32.4017L110.63 32.4069L111.446 31.1484ZM120.992 42.1543L119.637 42.7988L119.641 42.8076L120.992 42.1543ZM120.992 75.0034L119.639 74.3543L119.637 74.3589L120.992 75.0034ZM111.446 86.0093L110.63 84.7508L110.624 84.7542L111.446 86.0093ZM81.9658 86.0093L81.1443 87.2643L81.1495 87.2677L81.9658 86.0093ZM72.4199 75.0034L71.0676 75.6525L71.0697 75.6568L72.4199 75.0034ZM81.4604 70.3428L80.0553 70.8678L81.4604 70.3428ZM87.1318 78.541L86.1801 79.7004L86.1885 79.7073L87.1318 78.541ZM106.224 78.541L105.28 77.3747L105.272 77.3816L106.224 78.541ZM106.224 38.6167L105.27 39.7746L105.28 39.783L106.224 38.6167ZM87.1318 38.6167L88.0752 39.783L88.0854 39.7746L87.1318 38.6167ZM81.4043 46.8149L79.9992 46.2899L79.9966 46.2967L79.9942 46.3036L81.4043 46.8149ZM69.0508 57.9331H70.5508C70.5508 52.2504 71.6356 47.2191 73.7702 42.8076L72.4199 42.1543L71.0697 41.501C68.7121 46.3733 67.5508 51.8612 67.5508 57.9331H69.0508ZM72.4199 42.1543L73.7702 42.8076C75.9037 38.3983 78.9081 34.9426 82.7873 32.4035L81.9658 31.1484L81.1443 29.8934C76.7879 32.7449 73.4283 36.6265 71.0697 41.501L72.4199 42.1543ZM81.9658 31.1484L82.7952 32.3983C86.6332 29.8512 91.2203 28.5493 96.6216 28.5493V27.0493V25.5493C90.7175 25.5493 85.5341 26.9801 81.1364 29.8986L81.9658 31.1484ZM96.6216 27.0493V28.5493C102.102 28.5493 106.747 29.8533 110.622 32.4017L111.446 31.1484L112.27 29.8952C107.834 26.9781 102.596 25.5493 96.6216 25.5493V27.0493ZM111.446 31.1484L110.63 32.4069C114.543 34.9453 117.543 38.3974 119.637 42.7988L120.992 42.1543L122.346 41.5098C120.023 36.6274 116.659 32.7422 112.262 29.89L111.446 31.1484ZM120.992 42.1543L119.641 42.8076C121.776 47.2191 122.861 52.2504 122.861 57.9331H124.361H125.861C125.861 51.8612 124.7 46.3733 122.342 41.501L120.992 42.1543ZM124.361 57.9331H122.861V59.2246H124.361H125.861V57.9331H124.361ZM124.361 59.2246H122.861C122.861 64.868 121.777 69.9016 119.639 74.3543L120.992 75.0034L122.344 75.6525C124.699 70.7465 125.861 65.2609 125.861 59.2246H124.361ZM120.992 75.0034L119.637 74.3589C117.543 78.7604 114.543 82.2124 110.63 84.7508L111.446 86.0093L112.262 87.2677C116.659 84.4156 120.023 80.5303 122.346 75.6479L120.992 75.0034ZM111.446 86.0093L110.624 84.7542C106.787 87.2659 102.179 88.5522 96.7339 88.5522V90.0522V91.5522C102.669 91.5522 107.869 90.1432 112.267 87.2643L111.446 86.0093ZM96.7339 90.0522V88.5522C91.2893 88.5522 86.6597 87.266 82.7821 84.7508L81.9658 86.0093L81.1495 87.2677C85.5825 90.1432 90.7983 91.5522 96.7339 91.5522V90.0522ZM81.9658 86.0093L82.7873 84.7542C78.9081 82.2151 75.9037 78.7594 73.7702 74.3501L72.4199 75.0034L71.0697 75.6568C73.4283 80.5313 76.7879 84.4128 81.1443 87.2643L81.9658 86.0093ZM72.4199 75.0034L73.7722 74.3543C71.6349 69.9016 70.5508 64.868 70.5508 59.2246H69.0508H67.5508C67.5508 65.2609 68.7128 70.7465 71.0676 75.6525L72.4199 75.0034ZM69.0508 59.2246H70.5508V57.9331H69.0508H67.5508V59.2246H69.0508ZM79.5513 59.2246H78.0513C78.0513 63.3912 78.7137 67.2771 80.0553 70.8678L81.4604 70.3428L82.8656 69.8178C81.6616 66.5953 81.0513 63.069 81.0513 59.2246H79.5513ZM81.4604 70.3428L80.0553 70.8678C81.4092 74.4915 83.4437 77.4541 86.1801 79.7004L87.1318 78.541L88.0836 77.3816C85.8037 75.5101 84.0572 73.0072 82.8656 69.8178L81.4604 70.3428ZM87.1318 78.541L86.1885 79.7073C89.0467 82.0191 92.5984 83.1294 96.7339 83.1294V81.6294V80.1294C93.1577 80.1294 90.3081 79.1808 88.0751 77.3747L87.1318 78.541ZM96.7339 81.6294V83.1294C100.835 83.1294 104.353 82.0171 107.175 79.7004L106.224 78.541L105.272 77.3816C103.078 79.1828 100.269 80.1294 96.7339 80.1294V81.6294ZM106.224 78.541L107.167 79.7073C109.943 77.4615 112 74.497 113.356 70.8678L111.951 70.3428L110.546 69.8178C109.356 73.0017 107.595 75.5027 105.28 77.3747L106.224 78.541ZM111.951 70.3428L113.356 70.8678C114.698 67.2771 115.36 63.3912 115.36 59.2246H113.86H112.36C112.36 63.069 111.75 66.5953 110.546 69.8178L111.951 70.3428ZM113.86 59.2246H115.36V57.9331H113.86H112.36V59.2246H113.86ZM113.86 57.9331H115.36C115.36 53.7665 114.698 49.8807 113.356 46.2899L111.951 46.8149L110.546 47.3399C111.75 50.5624 112.36 54.0887 112.36 57.9331H113.86ZM111.951 46.8149L113.356 46.2899C112 42.6607 109.943 39.6962 107.167 37.4504L106.224 38.6167L105.28 39.783C107.595 41.6551 109.356 44.156 110.546 47.3399L111.951 46.8149ZM106.224 38.6167L107.177 37.4588C104.319 35.105 100.764 33.9722 96.6216 33.9722V35.4722V36.9722C100.191 36.9722 103.037 37.9357 105.27 39.7746L106.224 38.6167ZM96.6216 35.4722V33.9722C92.5466 33.9722 89.0312 35.1093 86.1783 37.4588L87.1318 38.6167L88.0854 39.7746C90.3236 37.9314 93.1348 36.9722 96.6216 36.9722V35.4722ZM87.1318 38.6167L86.1885 37.4504C83.412 39.6962 81.3551 42.6607 79.9992 46.2899L81.4043 46.8149L82.8094 47.3399C83.999 44.156 85.7605 41.6551 88.0751 39.783L87.1318 38.6167ZM81.4043 46.8149L79.9942 46.3036C78.6934 49.8905 78.0513 53.7715 78.0513 57.9331H79.5513H81.0513C81.0513 54.0836 81.6445 50.5526 82.8144 47.3263L81.4043 46.8149ZM79.5513 57.9331H78.0513V59.2246H79.5513H81.0513V57.9331H79.5513ZM147.945 88.9292V90.4292H149.445V88.9292H147.945ZM137.444 88.9292H135.944V90.4292H137.444V88.9292ZM137.444 28.1724V26.6724H135.944V28.1724H137.444ZM147.664 28.1724L149.163 28.1283L149.121 26.6724H147.664V28.1724ZM147.945 37.7183H149.445V37.6962L149.444 37.6742L147.945 37.7183ZM166.868 37.4375L166.562 38.906L168.368 39.2822V37.4375H166.868ZM164.341 37.1006L164.192 38.5931L164.231 38.597L164.27 38.5989L164.341 37.1006ZM153.672 38.9536L152.907 37.6635L152.897 37.6693L153.672 38.9536ZM148.619 44.4004L149.947 45.0972L149.952 45.0884L148.619 44.4004ZM146.373 52.2617L147.111 53.5671L147.787 53.1849L147.865 52.4128L146.373 52.2617ZM143.396 53.9463H141.896V56.519L144.135 55.2517L143.396 53.9463ZM145.362 40.5259L146.789 40.9883L146.79 40.9845L145.362 40.5259ZM151.482 30.7554L152.472 31.8823L152.473 31.8814L151.482 30.7554ZM164.791 27.3301L164.507 28.8031L164.539 28.8092L164.571 28.8139L164.791 27.3301ZM166.868 27.8354H168.368V26.9084L167.539 26.4938L166.868 27.8354ZM147.945 88.9292V87.4292H137.444V88.9292V90.4292H147.945V88.9292ZM137.444 88.9292H138.944V28.1724H137.444H135.944V88.9292H137.444ZM137.444 28.1724V29.6724H147.664V28.1724V26.6724H137.444V28.1724ZM147.664 28.1724L146.165 28.2165L146.445 37.7624L147.945 37.7183L149.444 37.6742L149.163 28.1283L147.664 28.1724ZM147.945 37.7183H146.445V88.9292H147.945H149.445V37.7183H147.945ZM166.868 37.4375L167.174 35.969C166.211 35.7683 165.289 35.644 164.413 35.6023L164.341 37.1006L164.27 38.5989C164.966 38.632 165.729 38.7323 166.562 38.906L166.868 37.4375ZM164.341 37.1006L164.491 35.608C163.68 35.527 162.768 35.4883 161.758 35.4883V36.9883V38.4883C162.695 38.4883 163.505 38.5244 164.192 38.5931L164.341 37.1006ZM161.758 36.9883V35.4883C158.371 35.4883 155.397 36.1866 152.907 37.6635L153.672 38.9536L154.438 40.2437C156.365 39.1002 158.782 38.4883 161.758 38.4883V36.9883ZM153.672 38.9536L152.897 37.6693C150.481 39.1273 148.607 41.1527 147.286 43.7124L148.619 44.4004L149.952 45.0884C151.026 43.0062 152.521 41.4003 154.447 40.2379L153.672 38.9536ZM148.619 44.4004L147.29 43.7036C145.991 46.1807 145.196 48.9913 144.88 52.1106L146.373 52.2617L147.865 52.4128C148.148 49.6174 148.851 47.1871 149.947 45.0972L148.619 44.4004ZM146.373 52.2617L145.634 50.9563L142.658 52.6409L143.396 53.9463L144.135 55.2517L147.111 53.5671L146.373 52.2617ZM143.396 53.9463H144.896C144.896 49.1757 145.534 44.8609 146.789 40.9883L145.362 40.5259L143.935 40.0634C142.569 44.2767 141.896 48.909 141.896 53.9463H143.396ZM145.362 40.5259L146.79 40.9845C148.031 37.1199 149.937 34.1092 152.472 31.8823L151.482 30.7554L150.493 29.6284C147.487 32.2681 145.313 35.7711 143.934 40.0673L145.362 40.5259ZM151.482 30.7554L152.473 31.8814C154.961 29.6921 158.183 28.5493 162.264 28.5493V27.0493V25.5493C157.585 25.5493 153.619 26.8773 150.491 29.6293L151.482 30.7554ZM162.264 27.0493V28.5493C162.851 28.5493 163.594 28.6274 164.507 28.8031L164.791 27.3301L165.074 25.8571C164.041 25.6584 163.099 25.5493 162.264 25.5493V27.0493ZM164.791 27.3301L164.571 28.8139C165.586 28.9643 166.06 29.1086 166.197 29.1771L166.868 27.8354L167.539 26.4938C166.927 26.1879 166.016 25.9953 165.01 25.8463L164.791 27.3301ZM166.868 27.8354H165.368V37.4375H166.868H168.368V27.8354H166.868ZM204.771 36.0898V37.5898H206.271V36.0898H204.771ZM171.866 36.0898H170.366V37.5898H171.866V36.0898ZM171.866 28.1724V26.6724H170.366V28.1724H171.866ZM204.771 28.1724H206.271V26.6724H204.771V28.1724ZM193.428 13.4043H194.928V11.9043H193.428V13.4043ZM202.806 80.9556L202.578 79.473L202.569 79.4744L202.806 80.9556ZM204.939 80.5625H206.439V78.6413L204.576 79.1073L204.939 80.5625ZM204.939 88.9292L205.394 90.3586L206.439 90.026V88.9292H204.939ZM201.739 89.6592L201.485 88.1807L201.465 88.1842L201.445 88.1883L201.739 89.6592ZM184.837 83.4824L183.512 84.1862L183.517 84.1948L184.837 83.4824ZM182.928 13.4043V11.9043H181.428V13.4043H182.928ZM204.771 36.0898V34.5898H171.866V36.0898V37.5898H204.771V36.0898ZM171.866 36.0898H173.366V28.1724H171.866H170.366V36.0898H171.866ZM171.866 28.1724V29.6724H204.771V28.1724V26.6724H171.866V28.1724ZM204.771 28.1724H203.271V36.0898H204.771H206.271V28.1724H204.771ZM193.428 13.4043H191.928V73.8804H193.428H194.928V13.4043H193.428ZM193.428 73.8804H191.928C191.928 76.0796 192.253 77.98 193.101 79.3756L194.383 78.5972L195.665 77.8187C195.24 77.118 194.928 75.8738 194.928 73.8804H193.428ZM194.383 78.5972L193.101 79.3756C193.892 80.679 194.981 81.6318 196.379 82.0978L196.854 80.6748L197.328 79.2518C196.704 79.044 196.146 78.6116 195.665 77.8187L194.383 78.5972ZM196.854 80.6748L196.379 82.0978C197.556 82.4901 198.803 82.6802 200.11 82.6802V81.1802V79.6802C199.097 79.6802 198.173 79.5334 197.328 79.2518L196.854 80.6748ZM200.11 81.1802V82.6802C201.058 82.6802 202.036 82.5978 203.043 82.4367L202.806 80.9556L202.569 79.4744C201.703 79.6128 200.885 79.6802 200.11 79.6802V81.1802ZM202.806 80.9556L203.034 82.4381C204.014 82.2873 204.783 82.1478 205.303 82.0177L204.939 80.5625L204.576 79.1073C204.198 79.2018 203.544 79.3243 202.578 79.473L202.806 80.9556ZM204.939 80.5625H203.439V88.9292H204.939H206.439V80.5625H204.939ZM204.939 88.9292L204.485 87.4998C203.752 87.7329 202.759 87.9623 201.485 88.1807L201.739 89.6592L201.992 91.1376C203.339 90.9068 204.48 90.6496 205.394 90.3586L204.939 88.9292ZM201.739 89.6592L201.445 88.1883C200.261 88.425 198.775 88.5522 196.966 88.5522V90.0522V91.5522C198.9 91.5522 200.596 91.4174 202.033 91.1301L201.739 89.6592ZM196.966 90.0522V88.5522C194.625 88.5522 192.507 88.0889 190.589 87.1805L189.947 88.5361L189.305 89.8917C191.655 91.0048 194.216 91.5522 196.966 91.5522V90.0522ZM189.947 88.5361L190.589 87.1805C188.782 86.3246 187.299 84.8869 186.157 82.77L184.837 83.4824L183.517 84.1948C184.92 86.7947 186.844 88.7262 189.305 89.8917L189.947 88.5361ZM184.837 83.4824L186.162 82.7787C185.047 80.68 184.428 77.7327 184.428 73.8242H182.928H181.428C181.428 78.0017 182.082 81.4932 183.512 84.1862L184.837 83.4824ZM182.928 73.8242H184.428V13.4043H182.928H181.428V73.8242H182.928ZM182.928 13.4043V14.9043H193.428V13.4043V11.9043H182.928V13.4043ZM221.954 88.9292H220.454V90.4292H221.954V88.9292ZM227.288 6.72217L226.244 5.64479L226.239 5.65028L227.288 6.72217ZM249.131 2.39844L250.628 2.49888L250.711 1.25703L249.506 0.946022L249.131 2.39844ZM248.57 10.7651L248.289 12.2386L249.953 12.5556L250.066 10.8656L248.57 10.7651ZM245.875 10.4282L245.759 11.9238L245.764 11.9241L245.875 10.4282ZM235.206 13.292L234.114 12.2627L234.114 12.2633L235.206 13.292ZM232.454 88.9292V90.4292H233.954V88.9292H232.454ZM245.369 36.0898V37.5898H246.869V36.0898H245.369ZM212.408 36.0898H210.908V37.5898H212.408V36.0898ZM212.408 28.1724V26.6724H210.908V28.1724H212.408ZM245.369 28.1724H246.869V26.6724H245.369V28.1724ZM221.954 88.9292H223.454V21.7148H221.954H220.454V88.9292H221.954ZM221.954 21.7148H223.454C223.454 15.4746 225.151 10.9138 228.337 7.79405L227.288 6.72217L226.239 5.65028C222.313 9.49342 220.454 14.9278 220.454 21.7148H221.954ZM227.288 6.72217L228.332 7.79953C231.582 4.65117 236.076 3 242 3V1.5V0C235.496 0 230.182 1.83028 226.244 5.64481L227.288 6.72217ZM242 1.5V3C243.135 3 244.271 3.07094 245.408 3.21303L245.594 1.72461L245.78 0.236193C244.521 0.0787983 243.261 0 242 0V1.5ZM245.594 1.72461L245.408 3.21303C246.542 3.35487 247.659 3.56751 248.757 3.85085L249.131 2.39844L249.506 0.946022C248.283 0.630403 247.041 0.393827 245.78 0.236193L245.594 1.72461ZM249.131 2.39844L247.635 2.29799L247.073 10.6647L248.57 10.7651L250.066 10.8656L250.628 2.49888L249.131 2.39844ZM248.57 10.7651L248.85 9.29163C247.996 9.12882 247.039 9.01036 245.985 8.93232L245.875 10.4282L245.764 11.9241C246.732 11.9958 247.572 12.102 248.289 12.2386L248.57 10.7651ZM245.875 10.4282L245.99 8.93264C244.978 8.85484 243.966 8.81592 242.955 8.81592V10.3159V11.8159C243.889 11.8159 244.824 11.8519 245.759 11.9238L245.875 10.4282ZM242.955 10.3159V8.81592C239.34 8.81592 236.327 9.91697 234.114 12.2627L235.206 13.292L236.297 14.3213C237.827 12.6989 239.981 11.8159 242.955 11.8159V10.3159ZM235.206 13.292L234.114 12.2633C231.933 14.5778 230.954 17.8078 230.954 21.7148H232.454H233.954C233.954 18.2846 234.81 15.8994 236.297 14.3207L235.206 13.292ZM232.454 21.7148H230.954V88.9292H232.454H233.954V21.7148H232.454ZM232.454 88.9292V87.4292H221.954V88.9292V90.4292H232.454V88.9292ZM245.369 36.0898V34.5898H212.408V36.0898V37.5898H245.369V36.0898ZM212.408 36.0898H213.908V28.1724H212.408H210.908V36.0898H212.408ZM212.408 28.1724V29.6724H245.369V28.1724V26.6724H212.408V28.1724ZM245.369 28.1724H243.869V36.0898H245.369H246.869V28.1724H245.369ZM267.044 31.1484L267.865 32.4035L267.873 32.3983L267.044 31.1484ZM296.524 31.1484L295.7 32.4017L295.708 32.4069L296.524 31.1484ZM306.07 42.1543L304.715 42.7988L304.72 42.8076L306.07 42.1543ZM306.07 75.0034L304.718 74.3543L304.715 74.3589L306.07 75.0034ZM296.524 86.0093L295.708 84.7508L295.702 84.7542L296.524 86.0093ZM267.044 86.0093L266.222 87.2643L266.228 87.2677L267.044 86.0093ZM257.498 75.0034L256.146 75.6525L256.148 75.6568L257.498 75.0034ZM266.539 70.3428L265.133 70.8678L266.539 70.3428ZM272.21 78.541L271.258 79.7004L271.267 79.7073L272.21 78.541ZM291.302 78.541L290.358 77.3747L290.35 77.3816L291.302 78.541ZM291.302 38.6167L290.348 39.7746L290.358 39.783L291.302 38.6167ZM272.21 38.6167L273.153 39.783L273.164 39.7746L272.21 38.6167ZM266.482 46.8149L265.077 46.2899L265.075 46.2967L265.072 46.3036L266.482 46.8149ZM254.129 57.9331H255.629C255.629 52.2504 256.714 47.2191 258.848 42.8076L257.498 42.1543L256.148 41.501C253.79 46.3733 252.629 51.8612 252.629 57.9331H254.129ZM257.498 42.1543L258.848 42.8076C260.982 38.3983 263.986 34.9426 267.865 32.4035L267.044 31.1484L266.222 29.8934C261.866 32.7449 258.506 36.6265 256.148 41.501L257.498 42.1543ZM267.044 31.1484L267.873 32.3983C271.711 29.8512 276.298 28.5493 281.7 28.5493V27.0493V25.5493C275.796 25.5493 270.612 26.9801 266.215 29.8986L267.044 31.1484ZM281.7 27.0493V28.5493C287.18 28.5493 291.825 29.8533 295.7 32.4017L296.524 31.1484L297.348 29.8952C292.913 26.9781 287.675 25.5493 281.7 25.5493V27.0493ZM296.524 31.1484L295.708 32.4069C299.621 34.9453 302.621 38.3974 304.715 42.7988L306.07 42.1543L307.424 41.5098C305.101 36.6274 301.737 32.7422 297.34 29.89L296.524 31.1484ZM306.07 42.1543L304.72 42.8076C306.854 47.2191 307.939 52.2504 307.939 57.9331H309.439H310.939C310.939 51.8612 309.778 46.3733 307.42 41.501L306.07 42.1543ZM309.439 57.9331H307.939V59.2246H309.439H310.939V57.9331H309.439ZM309.439 59.2246H307.939C307.939 64.868 306.855 69.9016 304.718 74.3543L306.07 75.0034L307.422 75.6525C309.777 70.7465 310.939 65.2609 310.939 59.2246H309.439ZM306.07 75.0034L304.715 74.3589C302.621 78.7604 299.621 82.2124 295.708 84.7508L296.524 86.0093L297.34 87.2677C301.737 84.4156 305.101 80.5303 307.424 75.6479L306.07 75.0034ZM296.524 86.0093L295.702 84.7542C291.865 87.2659 287.257 88.5522 281.812 88.5522V90.0522V91.5522C287.747 91.5522 292.947 90.1432 297.345 87.2643L296.524 86.0093ZM281.812 90.0522V88.5522C276.367 88.5522 271.738 87.266 267.86 84.7508L267.044 86.0093L266.228 87.2677C270.661 90.1432 275.876 91.5522 281.812 91.5522V90.0522ZM267.044 86.0093L267.865 84.7542C263.986 82.2151 260.982 78.7594 258.848 74.3501L257.498 75.0034L256.148 75.6568C258.506 80.5313 261.866 84.4128 266.222 87.2643L267.044 86.0093ZM257.498 75.0034L258.85 74.3543C256.713 69.9016 255.629 64.868 255.629 59.2246H254.129H252.629C252.629 65.2609 253.791 70.7465 256.146 75.6525L257.498 75.0034ZM254.129 59.2246H255.629V57.9331H254.129H252.629V59.2246H254.129ZM264.629 59.2246H263.129C263.129 63.3912 263.792 67.2771 265.133 70.8678L266.539 70.3428L267.944 69.8178C266.74 66.5953 266.129 63.069 266.129 59.2246H264.629ZM266.539 70.3428L265.133 70.8678C266.487 74.4915 268.522 77.4541 271.258 79.7004L272.21 78.541L273.162 77.3816C270.882 75.5101 269.135 73.0072 267.944 69.8178L266.539 70.3428ZM272.21 78.541L271.267 79.7073C274.125 82.0191 277.677 83.1294 281.812 83.1294V81.6294V80.1294C278.236 80.1294 275.386 79.1808 273.153 77.3747L272.21 78.541ZM281.812 81.6294V83.1294C285.913 83.1294 289.431 82.0171 292.254 79.7004L291.302 78.541L290.35 77.3816C288.156 79.1828 285.347 80.1294 281.812 80.1294V81.6294ZM291.302 78.541L292.245 79.7073C295.022 77.4615 297.078 74.497 298.434 70.8678L297.029 70.3428L295.624 69.8178C294.435 73.0017 292.673 75.5027 290.358 77.3747L291.302 78.541ZM297.029 70.3428L298.434 70.8678C299.776 67.2771 300.438 63.3912 300.438 59.2246H298.938H297.438C297.438 63.069 296.828 66.5953 295.624 69.8178L297.029 70.3428ZM298.938 59.2246H300.438V57.9331H298.938H297.438V59.2246H298.938ZM298.938 57.9331H300.438C300.438 53.7665 299.776 49.8807 298.434 46.2899L297.029 46.8149L295.624 47.3399C296.828 50.5624 297.438 54.0887 297.438 57.9331H298.938ZM297.029 46.8149L298.434 46.2899C297.078 42.6607 295.022 39.6962 292.245 37.4504L291.302 38.6167L290.358 39.783C292.673 41.6551 294.435 44.156 295.624 47.3399L297.029 46.8149ZM291.302 38.6167L292.255 37.4588C289.397 35.105 285.842 33.9722 281.7 33.9722V35.4722V36.9722C285.269 36.9722 288.115 37.9357 290.348 39.7746L291.302 38.6167ZM281.7 35.4722V33.9722C277.625 33.9722 274.109 35.1093 271.256 37.4588L272.21 38.6167L273.164 39.7746C275.402 37.9314 278.213 36.9722 281.7 36.9722V35.4722ZM272.21 38.6167L271.267 37.4504C268.49 39.6962 266.433 42.6607 265.077 46.2899L266.482 46.8149L267.888 47.3399C269.077 44.156 270.839 41.6551 273.153 39.783L272.21 38.6167ZM266.482 46.8149L265.072 46.3036C263.772 49.8905 263.129 53.7715 263.129 57.9331H264.629H266.129C266.129 54.0836 266.723 50.5526 267.893 47.3263L266.482 46.8149ZM264.629 57.9331H263.129V59.2246H264.629H266.129V57.9331H264.629ZM333.921 88.9292V90.4292H335.421V88.9292H333.921ZM323.421 88.9292H321.921V90.4292H323.421V88.9292ZM323.421 2.6792V1.1792H321.921V2.6792H323.421ZM333.921 2.6792H335.421V1.1792H333.921V2.6792ZM333.921 88.9292V87.4292H323.421V88.9292V90.4292H333.921V88.9292ZM323.421 88.9292H324.921V2.6792H323.421H321.921V88.9292H323.421ZM323.421 2.6792V4.1792H333.921V2.6792V1.1792H323.421V2.6792ZM333.921 2.6792H332.421V88.9292H333.921H335.421V2.6792H333.921ZM361.548 7.84521L360.435 8.85064L360.444 8.86037L360.453 8.86995L361.548 7.84521ZM361.548 16.2119L360.453 15.1872L360.452 15.1884L361.548 16.2119ZM352.339 16.2119L351.208 17.1971L351.225 17.2165L351.243 17.2354L352.339 16.2119ZM352.339 7.84521L351.226 6.83979L351.217 6.84983L351.208 6.86004L352.339 7.84521ZM362.222 88.9292V90.4292H363.722V88.9292H362.222ZM351.778 88.9292H350.278V90.4292H351.778V88.9292ZM351.778 28.1724V26.6724H350.278V28.1724H351.778ZM362.222 28.1724H363.722V26.6724H362.222V28.1724ZM356.944 6.10449V7.60449C358.673 7.60449 359.749 8.09114 360.435 8.85064L361.548 7.84521L362.661 6.83979C361.251 5.27832 359.258 4.60449 356.944 4.60449V6.10449ZM361.548 7.84521L360.453 8.86995C361.268 9.74152 361.677 10.7747 361.677 12.0566H363.177H364.677C364.677 10.0443 364 8.26987 362.644 6.82048L361.548 7.84521ZM363.177 12.0566H361.677C361.677 13.2913 361.275 14.3086 360.453 15.1872L361.548 16.2119L362.644 17.2366C363.993 15.7943 364.677 14.0414 364.677 12.0566H363.177ZM361.548 16.2119L360.452 15.1884C359.769 15.9196 358.687 16.3965 356.944 16.3965V17.8965V19.3965C359.243 19.3965 361.231 18.7503 362.645 17.2354L361.548 16.2119ZM356.944 17.8965V16.3965C355.2 16.3965 354.118 15.9196 353.436 15.1884L352.339 16.2119L351.243 17.2354C352.657 18.7503 354.644 19.3965 356.944 19.3965V17.8965ZM352.339 16.2119L353.47 15.2267C352.709 14.3528 352.323 13.3224 352.323 12.0566H350.823H349.323C349.323 14.0103 349.948 15.7501 351.208 17.1971L352.339 16.2119ZM350.823 12.0566H352.323C352.323 10.744 352.715 9.69765 353.47 8.83039L352.339 7.84521L351.208 6.86004C349.942 8.31375 349.323 10.075 349.323 12.0566H350.823ZM352.339 7.84521L353.453 8.85064C354.139 8.09114 355.215 7.60449 356.944 7.60449V6.10449V4.60449C354.63 4.60449 352.637 5.27832 351.226 6.83979L352.339 7.84521ZM362.222 88.9292V87.4292H351.778V88.9292V90.4292H362.222V88.9292ZM351.778 88.9292H353.278V28.1724H351.778H350.278V88.9292H351.778ZM351.778 28.1724V29.6724H362.222V28.1724V26.6724H351.778V28.1724ZM362.222 28.1724H360.722V88.9292H362.222H363.722V28.1724H362.222ZM389.456 31.1484L390.278 32.4035L390.285 32.3983L389.456 31.1484ZM418.936 31.1484L418.112 32.4017L418.12 32.4069L418.936 31.1484ZM428.482 42.1543L427.127 42.7988L427.132 42.8076L428.482 42.1543ZM428.482 75.0034L427.13 74.3543L427.127 74.3589L428.482 75.0034ZM418.936 86.0093L418.12 84.7508L418.115 84.7542L418.936 86.0093ZM389.456 86.0093L388.635 87.2643L388.64 87.2677L389.456 86.0093ZM379.91 75.0034L378.558 75.6525L378.56 75.6568L379.91 75.0034ZM388.951 70.3428L387.546 70.8678L388.951 70.3428ZM394.622 78.541L393.67 79.7004L393.679 79.7073L394.622 78.541ZM413.714 78.541L412.771 77.3747L412.762 77.3816L413.714 78.541ZM413.714 38.6167L412.76 39.7746L412.771 39.783L413.714 38.6167ZM394.622 38.6167L395.565 39.783L395.576 39.7746L394.622 38.6167ZM388.895 46.8149L387.489 46.2899L387.487 46.2967L387.484 46.3036L388.895 46.8149ZM376.541 57.9331H378.041C378.041 52.2504 379.126 47.2191 381.26 42.8076L379.91 42.1543L378.56 41.501C376.202 46.3733 375.041 51.8612 375.041 57.9331H376.541ZM379.91 42.1543L381.26 42.8076C383.394 38.3983 386.398 34.9426 390.278 32.4035L389.456 31.1484L388.635 29.8934C384.278 32.7449 380.919 36.6265 378.56 41.501L379.91 42.1543ZM389.456 31.1484L390.285 32.3983C394.123 29.8512 398.711 28.5493 404.112 28.5493V27.0493V25.5493C398.208 25.5493 393.024 26.9801 388.627 29.8986L389.456 31.1484ZM404.112 27.0493V28.5493C409.592 28.5493 414.237 29.8533 418.112 32.4017L418.936 31.1484L419.76 29.8952C415.325 26.9781 410.087 25.5493 404.112 25.5493V27.0493ZM418.936 31.1484L418.12 32.4069C422.033 34.9453 425.033 38.3974 427.127 42.7988L428.482 42.1543L429.836 41.5098C427.513 36.6274 424.149 32.7422 419.752 29.89L418.936 31.1484ZM428.482 42.1543L427.132 42.8076C429.266 47.2191 430.351 52.2504 430.351 57.9331H431.851H433.351C433.351 51.8612 432.19 46.3733 429.832 41.501L428.482 42.1543ZM431.851 57.9331H430.351V59.2246H431.851H433.351V57.9331H431.851ZM431.851 59.2246H430.351C430.351 64.868 429.267 69.9016 427.13 74.3543L428.482 75.0034L429.834 75.6525C432.189 70.7465 433.351 65.2609 433.351 59.2246H431.851ZM428.482 75.0034L427.127 74.3589C425.033 78.7604 422.033 82.2124 418.12 84.7508L418.936 86.0093L419.752 87.2677C424.149 84.4156 427.513 80.5303 429.836 75.6479L428.482 75.0034ZM418.936 86.0093L418.115 84.7542C414.277 87.2659 409.669 88.5522 404.224 88.5522V90.0522V91.5522C410.159 91.5522 415.359 90.1432 419.758 87.2643L418.936 86.0093ZM404.224 90.0522V88.5522C398.78 88.5522 394.15 87.266 390.272 84.7508L389.456 86.0093L388.64 87.2677C393.073 90.1432 398.289 91.5522 404.224 91.5522V90.0522ZM389.456 86.0093L390.278 84.7542C386.398 82.2151 383.394 78.7594 381.26 74.3501L379.91 75.0034L378.56 75.6568C380.919 80.5313 384.278 84.4128 388.635 87.2643L389.456 86.0093ZM379.91 75.0034L381.262 74.3543C379.125 69.9016 378.041 64.868 378.041 59.2246H376.541H375.041C375.041 65.2609 376.203 70.7465 378.558 75.6525L379.91 75.0034ZM376.541 59.2246H378.041V57.9331H376.541H375.041V59.2246H376.541ZM387.042 59.2246H385.542C385.542 63.3912 386.204 67.2771 387.546 70.8678L388.951 70.3428L390.356 69.8178C389.152 66.5953 388.542 63.069 388.542 59.2246H387.042ZM388.951 70.3428L387.546 70.8678C388.899 74.4915 390.934 77.4541 393.67 79.7004L394.622 78.541L395.574 77.3816C393.294 75.5101 391.547 73.0072 390.356 69.8178L388.951 70.3428ZM394.622 78.541L393.679 79.7073C396.537 82.0191 400.089 83.1294 404.224 83.1294V81.6294V80.1294C400.648 80.1294 397.798 79.1808 395.565 77.3747L394.622 78.541ZM404.224 81.6294V83.1294C408.325 83.1294 411.843 82.0171 414.666 79.7004L413.714 78.541L412.762 77.3816C410.568 79.1828 407.76 80.1294 404.224 80.1294V81.6294ZM413.714 78.541L414.657 79.7073C417.434 77.4615 419.491 74.497 420.847 70.8678L419.441 70.3428L418.036 69.8178C416.847 73.0017 415.085 75.5027 412.771 77.3747L413.714 78.541ZM419.441 70.3428L420.847 70.8678C422.188 67.2771 422.851 63.3912 422.851 59.2246H421.351H419.851C419.851 63.069 419.24 66.5953 418.036 69.8178L419.441 70.3428ZM421.351 59.2246H422.851V57.9331H421.351H419.851V59.2246H421.351ZM421.351 57.9331H422.851C422.851 53.7665 422.188 49.8807 420.847 46.2899L419.441 46.8149L418.036 47.3399C419.24 50.5624 419.851 54.0887 419.851 57.9331H421.351ZM419.441 46.8149L420.847 46.2899C419.491 42.6607 417.434 39.6962 414.657 37.4504L413.714 38.6167L412.771 39.783C415.085 41.6551 416.847 44.156 418.036 47.3399L419.441 46.8149ZM413.714 38.6167L414.667 37.4588C411.809 35.105 408.254 33.9722 404.112 33.9722V35.4722V36.9722C407.681 36.9722 410.527 37.9357 412.76 39.7746L413.714 38.6167ZM404.112 35.4722V33.9722C400.037 33.9722 396.521 35.1093 393.669 37.4588L394.622 38.6167L395.576 39.7746C397.814 37.9314 400.625 36.9722 404.112 36.9722V35.4722ZM394.622 38.6167L393.679 37.4504C390.902 39.6962 388.845 42.6607 387.489 46.2899L388.895 46.8149L390.3 47.3399C391.489 44.156 393.251 41.6551 395.565 39.783L394.622 38.6167ZM388.895 46.8149L387.484 46.3036C386.184 49.8905 385.542 53.7715 385.542 57.9331H387.042H388.542C388.542 54.0836 389.135 50.5526 390.305 47.3263L388.895 46.8149ZM387.042 57.9331H385.542V59.2246H387.042H388.542V57.9331H387.042Z" fill="url(#paint0_linear_179_60)" mask="url(#path-1-outside-1_179_60)"/>
<defs>
<linearGradient id="paint0_linear_179_60" x1="-7.99023" y1="47.9292" x2="438.01" y2="47.9292" gradientUnits="userSpaceOnUse">
<stop stop-color="#1100FF"/>
<stop offset="1" stop-color="#FF00F2" stop-opacity="0.6"/>
</linearGradient>
</defs>
</svg>
