<svg width="207" height="72" viewBox="0 0 207 72" fill="none" xmlns="http://www.w3.org/2000/svg">
<mask id="path-1-outside-1_179_59" maskUnits="userSpaceOnUse" x="-0.0595703" y="0" width="207" height="72" fill="black">
<rect fill="white" x="-0.0595703" width="207" height="72"/>
<path d="M25.6699 69.8789C22.7109 69.8789 19.7959 69.4688 16.9248 68.6484C14.083 67.8281 11.4902 66.5977 9.14648 64.957C6.83203 63.3164 4.97168 61.2949 3.56543 58.8926C2.18848 56.4609 1.5 53.6484 1.5 50.4551H10.0254C10.0254 52.6523 10.4502 54.542 11.2998 56.124C12.1494 57.7061 13.3066 59.0098 14.7715 60.0352C16.2363 61.0605 17.9062 61.8223 19.7812 62.3203C21.6562 62.7891 23.6191 63.0234 25.6699 63.0234C28.6289 63.0234 31.1191 62.6133 33.1406 61.793C35.1914 60.9434 36.7441 59.7568 37.7988 58.2334C38.8828 56.71 39.4248 54.9082 39.4248 52.8281C39.4248 50.8066 39 49.0928 38.1504 47.6865C37.3008 46.2803 35.7773 45.0059 33.5801 43.8633C31.3828 42.7207 28.2627 41.5635 24.2197 40.3916C21.0557 39.4834 18.1992 38.458 15.6504 37.3154C13.1309 36.1436 10.9629 34.8105 9.14648 33.3164C7.33008 31.8223 5.93848 30.1084 4.97168 28.1748C4.00488 26.2412 3.52148 24.0293 3.52148 21.5391C3.52148 18.1992 4.41504 15.2256 6.20215 12.6182C8.01855 9.98145 10.5527 7.91602 13.8047 6.42188C17.0566 4.89844 20.8652 4.13672 25.2305 4.13672C30.0645 4.13672 34.166 5.05957 37.5352 6.90527C40.9043 8.72168 43.4678 11.1094 45.2256 14.0684C46.9834 16.998 47.8623 20.1328 47.8623 23.4727H39.293C39.293 21.0703 38.7803 18.9316 37.7549 17.0566C36.7588 15.1816 35.2207 13.7168 33.1406 12.6621C31.0605 11.5781 28.4238 11.0361 25.2305 11.0361C22.2422 11.0361 19.7666 11.4902 17.8037 12.3984C15.8701 13.3066 14.4346 14.5371 13.4971 16.0898C12.5596 17.6426 12.0908 19.415 12.0908 21.4072C12.0908 23.1943 12.6035 24.791 13.6289 26.1973C14.6543 27.5742 16.2656 28.8193 18.4629 29.9326C20.6602 31.0459 23.502 32.1006 26.9883 33.0967C31.8223 34.4443 35.792 36.0117 38.8975 37.7988C42.0029 39.5859 44.2881 41.6953 45.7529 44.127C47.2471 46.5586 47.9941 49.4297 47.9941 52.7402C47.9941 56.1973 47.0713 59.2148 45.2256 61.793C43.3799 64.3711 40.7871 66.3633 37.4473 67.7695C34.1074 69.1758 30.1816 69.8789 25.6699 69.8789ZM65.792 69H57.5742V1.5H65.792V69ZM74.1416 43.5996L62.4521 55.6406L61.793 47.0273L70.1426 37.1396L84.8203 21.4512H94.7959L74.1416 43.5996ZM70.4062 46.2803L74.6689 39.0732L96.9932 69H87.3252L70.4062 46.2803ZM108.287 4.18066C109.869 4.18066 111.07 4.63477 111.891 5.54297C112.74 6.45117 113.165 7.5498 113.165 8.83887C113.165 10.0986 112.74 11.1826 111.891 12.0908C111.07 12.9697 109.869 13.4092 108.287 13.4092C106.705 13.4092 105.504 12.9697 104.684 12.0908C103.893 11.1826 103.497 10.0986 103.497 8.83887C103.497 7.5498 103.893 6.45117 104.684 5.54297C105.504 4.63477 106.705 4.18066 108.287 4.18066ZM112.418 69H104.244V21.4512H112.418V69ZM134.654 69H126.437V1.5H134.654V69ZM156.539 69H148.321V1.5H156.539V69ZM186.993 69.8789C182.804 69.8789 179.259 69.1318 176.358 67.6377C173.458 66.1436 171.261 64.2246 169.767 61.8809C168.272 59.5078 167.525 57.0029 167.525 54.3662H175.743C175.89 56.5928 176.534 58.3652 177.677 59.6836C178.849 60.9727 180.27 61.8955 181.939 62.4521C183.639 63.0088 185.323 63.2871 186.993 63.2871C189.22 63.2871 191.08 62.9941 192.574 62.4082C194.098 61.793 195.24 60.9727 196.002 59.9473C196.793 58.8926 197.188 57.7061 197.188 56.3877C197.188 55.2158 196.925 54.1318 196.397 53.1357C195.899 52.1104 194.874 51.1875 193.321 50.3672C191.769 49.5176 189.425 48.7705 186.29 48.126C182.774 47.3936 179.728 46.4707 177.149 45.3574C174.601 44.2148 172.623 42.7646 171.217 41.0068C169.84 39.249 169.151 37.0664 169.151 34.459C169.151 31.9395 169.869 29.6396 171.305 27.5596C172.77 25.4502 174.82 23.7656 177.457 22.5059C180.123 21.2168 183.229 20.5723 186.773 20.5723C190.582 20.5723 193.834 21.2461 196.529 22.5938C199.254 23.9121 201.334 25.6992 202.77 27.9551C204.205 30.1816 204.923 32.6572 204.923 35.3818H196.705C196.705 33.4189 195.841 31.5586 194.112 29.8008C192.413 28.043 189.967 27.1641 186.773 27.1641C184.547 27.1641 182.73 27.5156 181.324 28.2188C179.947 28.8926 178.937 29.7715 178.292 30.8555C177.677 31.9102 177.369 33.0234 177.369 34.1953C177.369 35.3672 177.662 36.3926 178.248 37.2715C178.834 38.1211 179.903 38.8828 181.456 39.5566C183.038 40.2305 185.323 40.9043 188.312 41.5781C192.208 42.457 195.416 43.5117 197.936 44.7422C200.455 45.9727 202.33 47.4814 203.561 49.2686C204.791 51.0557 205.406 53.2383 205.406 55.8164C205.406 58.5703 204.645 61.0166 203.121 63.1553C201.598 65.2646 199.459 66.9199 196.705 68.1211C193.951 69.293 190.714 69.8789 186.993 69.8789Z"/>
</mask>
<path d="M16.9248 68.6484L16.5088 70.0896L16.5127 70.0907L16.9248 68.6484ZM9.14648 64.957L8.27901 66.1808L8.28629 66.1859L9.14648 64.957ZM3.56543 58.8926L2.26017 59.6317L2.26547 59.6411L2.27091 59.6503L3.56543 58.8926ZM1.5 50.4551V48.9551H0V50.4551H1.5ZM10.0254 50.4551H11.5254V48.9551H10.0254V50.4551ZM19.7812 62.3203L19.3962 63.77L19.4068 63.7729L19.4174 63.7755L19.7812 62.3203ZM33.1406 61.793L33.7047 63.1829L33.7147 63.1788L33.1406 61.793ZM37.7988 58.2334L36.5766 57.3638L36.571 57.3716L36.5655 57.3796L37.7988 58.2334ZM24.2197 40.3916L24.6373 38.9509L24.6336 38.9498L24.2197 40.3916ZM15.6504 37.3154L15.0178 38.6755L15.0273 38.6799L15.0368 38.6842L15.6504 37.3154ZM6.20215 12.6182L4.96688 11.7672L4.96487 11.7701L6.20215 12.6182ZM13.8047 6.42188L14.431 7.78493L14.441 7.78021L13.8047 6.42188ZM37.5352 6.90527L36.8145 8.22083L36.8233 8.22561L37.5352 6.90527ZM45.2256 14.0684L43.936 14.8345L43.9393 14.8401L45.2256 14.0684ZM47.8623 23.4727V24.9727H49.3623V23.4727H47.8623ZM39.293 23.4727H37.793V24.9727H39.293V23.4727ZM37.7549 17.0566L36.4302 17.7604L36.4345 17.7684L36.4388 17.7764L37.7549 17.0566ZM33.1406 12.6621L32.4474 13.9923L32.4548 13.9962L32.4623 14L33.1406 12.6621ZM17.8037 12.3984L17.1738 11.0371L17.166 11.0407L17.8037 12.3984ZM13.6289 26.1973L12.4169 27.081L12.4213 27.0871L12.4258 27.0932L13.6289 26.1973ZM26.9883 33.0967L26.5762 34.539L26.5855 34.5416L26.9883 33.0967ZM45.7529 44.127L44.468 44.901L44.4749 44.9122L45.7529 44.127ZM25.6699 69.8789V68.3789C22.8516 68.3789 20.0752 67.9885 17.3369 67.2062L16.9248 68.6484L16.5127 70.0907C19.5166 70.949 22.5703 71.3789 25.6699 71.3789V69.8789ZM16.9248 68.6484L17.3408 67.2073C14.6523 66.4312 12.2105 65.2709 10.0067 63.7282L9.14648 64.957L8.28629 66.1859C10.77 67.9245 13.5137 69.225 16.5088 70.0896L16.9248 68.6484ZM9.14648 64.957L10.0139 63.7333C7.8699 62.2135 6.15646 60.3497 4.85995 58.1348L3.56543 58.8926L2.27091 59.6503C3.7869 62.2402 5.79417 64.4193 8.27903 66.1808L9.14648 64.957ZM3.56543 58.8926L4.87069 58.1535C3.63868 55.9778 3 53.4269 3 50.4551H1.5H0C0 53.87 0.738278 56.9441 2.26017 59.6317L3.56543 58.8926ZM1.5 50.4551V51.9551H10.0254V50.4551V48.9551H1.5V50.4551ZM10.0254 50.4551H8.52539C8.52539 52.8452 8.98809 54.9899 9.97831 56.8337L11.2998 56.124L12.6213 55.4143C11.9123 54.0941 11.5254 52.4594 11.5254 50.4551H10.0254ZM11.2998 56.124L9.97831 56.8337C10.9385 58.6216 12.2533 60.1034 13.9113 61.264L14.7715 60.0352L15.6317 58.8063C14.36 57.9161 13.3604 56.7905 12.6213 55.4143L11.2998 56.124ZM14.7715 60.0352L13.9113 61.264C15.5321 62.3986 17.3655 63.2307 19.3962 63.77L19.7812 62.3203L20.1663 60.8706C18.447 60.4139 16.9406 59.7225 15.6317 58.8063L14.7715 60.0352ZM19.7812 62.3203L19.4174 63.7755C21.4185 64.2758 23.504 64.5234 25.6699 64.5234V63.0234V61.5234C23.7343 61.5234 21.894 61.3023 20.1451 60.8651L19.7812 62.3203ZM25.6699 63.0234V64.5234C28.7576 64.5234 31.4525 64.0968 33.7047 63.1829L33.1406 61.793L32.5766 60.403C30.7858 61.1298 28.5002 61.5234 25.6699 61.5234V63.0234ZM33.1406 61.793L33.7147 63.1788C35.9784 62.2409 37.7833 60.891 39.0321 59.0872L37.7988 58.2334L36.5655 57.3796C35.7049 58.6227 34.4044 59.6458 32.5665 60.4072L33.1406 61.793ZM37.7988 58.2334L39.021 59.103C40.3059 57.2973 40.9248 55.1832 40.9248 52.8281H39.4248H37.9248C37.9248 54.6332 37.4598 56.1226 36.5766 57.3638L37.7988 58.2334ZM39.4248 52.8281H40.9248C40.9248 50.596 40.4546 48.5996 39.4343 46.9108L38.1504 47.6865L36.8665 48.4622C37.5454 49.5859 37.9248 51.0173 37.9248 52.8281H39.4248ZM38.1504 47.6865L39.4343 46.9108C38.3873 45.178 36.5987 43.7423 34.2721 42.5325L33.5801 43.8633L32.888 45.1941C34.956 46.2694 36.2143 47.3826 36.8665 48.4622L38.1504 47.6865ZM33.5801 43.8633L34.2721 42.5325C31.9474 41.3236 28.7192 40.1341 24.6373 38.9509L24.2197 40.3916L23.8021 41.8323C27.8062 42.9929 30.8182 44.1178 32.888 45.1941L33.5801 43.8633ZM24.2197 40.3916L24.6336 38.9498C21.526 38.0578 18.7378 37.0556 16.264 35.9467L15.6504 37.3154L15.0368 38.6842C17.6606 39.8604 20.5853 40.909 23.8059 41.8334L24.2197 40.3916ZM15.6504 37.3154L16.283 35.9553C13.8582 34.8275 11.8022 33.5587 10.0994 32.158L9.14648 33.3164L8.19358 34.4748C10.1236 36.0624 12.4035 37.4596 15.0178 38.6755L15.6504 37.3154ZM9.14648 33.3164L10.0994 32.158C8.43086 30.7855 7.17812 29.2336 6.31332 27.504L4.97168 28.1748L3.63004 28.8456C4.69884 30.9832 6.2293 32.8591 8.19358 34.4748L9.14648 33.3164ZM4.97168 28.1748L6.31332 27.504C5.46544 25.8082 5.02148 23.8319 5.02148 21.5391H3.52148H2.02148C2.02148 24.2267 2.54433 26.6742 3.63004 28.8456L4.97168 28.1748ZM3.52148 21.5391H5.02148C5.02148 18.4838 5.8334 15.8094 7.43943 13.4662L6.20215 12.6182L4.96487 11.7701C2.99668 14.6418 2.02148 17.9146 2.02148 21.5391H3.52148ZM6.20215 12.6182L7.43741 13.4691C9.08312 11.0802 11.3948 9.17989 14.4309 7.78489L13.8047 6.42188L13.1784 5.05886C9.71071 6.65214 6.95399 8.8827 4.96689 11.7672L6.20215 12.6182ZM13.8047 6.42188L14.441 7.78021C17.4556 6.36798 21.0386 5.63672 25.2305 5.63672V4.13672V2.63672C20.6918 2.63672 16.6577 3.42889 13.1684 5.06354L13.8047 6.42188ZM25.2305 4.13672V5.63672C29.8764 5.63672 33.7162 6.5235 36.8145 8.2208L37.5352 6.90527L38.2558 5.58974C34.6158 3.59564 30.2525 2.63672 25.2305 2.63672V4.13672ZM37.5352 6.90527L36.8233 8.22561C39.9808 9.92789 42.3322 12.1347 43.936 14.8345L45.2256 14.0684L46.5152 13.3023C44.6034 10.0841 41.8278 7.51547 38.247 5.58494L37.5352 6.90527ZM45.2256 14.0684L43.9393 14.8401C45.5607 17.5423 46.3623 20.4112 46.3623 23.4727H47.8623H49.3623C49.3623 19.8545 48.4061 16.4538 46.5118 13.2966L45.2256 14.0684ZM47.8623 23.4727V21.9727H39.293V23.4727V24.9727H47.8623V23.4727ZM39.293 23.4727H40.793C40.793 20.8505 40.2314 18.4589 39.0709 16.3369L37.7549 17.0566L36.4388 17.7764C37.3292 19.4044 37.793 21.2901 37.793 23.4727H39.293ZM37.7549 17.0566L39.0796 16.3529C37.9242 14.1781 36.1462 12.5043 33.819 11.3243L33.1406 12.6621L32.4623 14C34.2952 14.9293 35.5934 16.1851 36.4302 17.7604L37.7549 17.0566ZM33.1406 12.6621L33.8338 11.3319C31.4765 10.1034 28.5822 9.53613 25.2305 9.53613V11.0361V12.5361C28.2655 12.5361 30.6446 13.0528 32.4474 13.9923L33.1406 12.6621ZM25.2305 11.0361V9.53613C22.1026 9.53613 19.3944 10.0097 17.1738 11.0371L17.8037 12.3984L18.4336 13.7598C20.1388 12.9708 22.3817 12.5361 25.2305 12.5361V11.0361ZM17.8037 12.3984L17.166 11.0407C15.0128 12.0521 13.3293 13.4656 12.213 15.3145L13.4971 16.0898L14.7812 16.8651C15.5398 15.6086 16.7274 14.5612 18.4414 13.7561L17.8037 12.3984ZM13.4971 16.0898L12.213 15.3145C11.1205 17.1239 10.5908 19.1695 10.5908 21.4072H12.0908H13.5908C13.5908 19.6606 13.9986 18.1613 14.7812 16.8651L13.4971 16.0898ZM12.0908 21.4072H10.5908C10.5908 23.5028 11.199 25.4108 12.4169 27.081L13.6289 26.1973L14.8409 25.3135C14.008 24.1712 13.5908 22.8858 13.5908 21.4072H12.0908ZM13.6289 26.1973L12.4258 27.0932C13.6366 28.719 15.4645 30.095 17.7849 31.2707L18.4629 29.9326L19.1408 28.5946C17.0667 27.5437 15.672 26.4294 14.832 25.3014L13.6289 26.1973ZM18.4629 29.9326L17.7849 31.2707C20.0969 32.4421 23.0368 33.5277 26.5762 34.539L26.9883 33.0967L27.4004 31.6544C23.9671 30.6735 21.2234 29.6497 19.1408 28.5946L18.4629 29.9326ZM26.9883 33.0967L26.5855 34.5416C31.3429 35.8679 35.1861 37.3937 38.1493 39.0989L38.8975 37.7988L39.6456 36.4987C36.3979 34.6298 32.3016 33.0208 27.3911 31.6518L26.9883 33.0967ZM38.8975 37.7988L38.1493 39.0989C41.0909 40.7917 43.1647 42.7374 44.4681 44.901L45.7529 44.127L47.0378 43.3529C45.4115 40.6533 42.915 38.3801 39.6456 36.4987L38.8975 37.7988ZM45.7529 44.127L44.4749 44.9122C45.802 47.072 46.4941 49.6618 46.4941 52.7402H47.9941H49.4941C49.4941 49.1976 48.6922 46.0452 47.0309 43.3417L45.7529 44.127ZM47.9941 52.7402H46.4941C46.4941 55.9138 45.6527 58.6195 44.0059 60.9198L45.2256 61.793L46.4452 62.6661C48.4899 59.8102 49.4941 56.4807 49.4941 52.7402H47.9941ZM45.2256 61.793L44.0059 60.9198C42.3436 63.2417 39.9868 65.0727 36.8652 66.3871L37.4473 67.7695L38.0294 69.152C41.5874 67.6539 44.4161 65.5005 46.4452 62.6661L45.2256 61.793ZM37.4473 67.7695L36.8652 66.3871C33.7488 67.6993 30.0291 68.3789 25.6699 68.3789V69.8789V71.3789C30.3342 71.3789 34.4661 70.6523 38.0294 69.152L37.4473 67.7695ZM65.792 69V70.5H67.292V69H65.792ZM57.5742 69H56.0742V70.5H57.5742V69ZM57.5742 1.5V0H56.0742V1.5H57.5742ZM65.792 1.5H67.292V0H65.792V1.5ZM74.1416 43.5996L75.2179 44.6444L75.2283 44.6336L75.2386 44.6226L74.1416 43.5996ZM62.4521 55.6406L60.9565 55.7551L61.2105 59.0731L63.5284 56.6855L62.4521 55.6406ZM61.793 47.0273L60.6469 46.0596L60.2505 46.5291L60.2973 47.1418L61.793 47.0273ZM70.1426 37.1396L69.0472 36.1149L69.0212 36.1427L68.9965 36.1719L70.1426 37.1396ZM84.8203 21.4512V19.9512H84.1696L83.725 20.4264L84.8203 21.4512ZM94.7959 21.4512L95.8929 22.4742L98.2457 19.9512H94.7959V21.4512ZM70.4062 46.2803L69.1152 45.5166L68.6071 46.3757L69.2032 47.1762L70.4062 46.2803ZM74.6689 39.0732L75.8713 38.1764L74.5245 36.371L73.3779 38.3096L74.6689 39.0732ZM96.9932 69V70.5H99.9835L98.1955 68.1031L96.9932 69ZM87.3252 69L86.1221 69.8959L86.572 70.5H87.3252V69ZM65.792 69V67.5H57.5742V69V70.5H65.792V69ZM57.5742 69H59.0742V1.5H57.5742H56.0742V69H57.5742ZM57.5742 1.5V3H65.792V1.5V0H57.5742V1.5ZM65.792 1.5H64.292V69H65.792H67.292V1.5H65.792ZM74.1416 43.5996L73.0653 42.5548L61.3759 54.5958L62.4521 55.6406L63.5284 56.6855L75.2179 44.6444L74.1416 43.5996ZM62.4521 55.6406L63.9478 55.5262L63.2886 46.9129L61.793 47.0273L60.2973 47.1418L60.9565 55.7551L62.4521 55.6406ZM61.793 47.0273L62.939 47.9951L71.2886 38.1074L70.1426 37.1396L68.9965 36.1719L60.6469 46.0596L61.793 47.0273ZM70.1426 37.1396L71.2379 38.1644L85.9157 22.476L84.8203 21.4512L83.725 20.4264L69.0472 36.1149L70.1426 37.1396ZM84.8203 21.4512V22.9512H94.7959V21.4512V19.9512H84.8203V21.4512ZM94.7959 21.4512L93.6989 20.4282L73.0446 42.5766L74.1416 43.5996L75.2386 44.6226L95.8929 22.4742L94.7959 21.4512ZM70.4062 46.2803L71.6973 47.0439L75.96 39.8369L74.6689 39.0732L73.3779 38.3096L69.1152 45.5166L70.4062 46.2803ZM74.6689 39.0732L73.4666 39.9701L95.7908 69.8969L96.9932 69L98.1955 68.1031L75.8713 38.1764L74.6689 39.0732ZM96.9932 69V67.5H87.3252V69V70.5H96.9932V69ZM87.3252 69L88.5283 68.1041L71.6093 45.3844L70.4062 46.2803L69.2032 47.1762L86.1221 69.8959L87.3252 69ZM111.891 5.54297L110.777 6.5484L110.786 6.55813L110.795 6.5677L111.891 5.54297ZM111.891 12.0908L110.795 11.0661L110.794 11.0673L111.891 12.0908ZM104.684 12.0908L103.552 13.076L103.569 13.0954L103.587 13.1143L104.684 12.0908ZM104.684 5.54297L103.57 4.53754L103.561 4.54759L103.552 4.5578L104.684 5.54297ZM112.418 69V70.5H113.918V69H112.418ZM104.244 69H102.744V70.5H104.244V69ZM104.244 21.4512V19.9512H102.744V21.4512H104.244ZM112.418 21.4512H113.918V19.9512H112.418V21.4512ZM108.287 4.18066V5.68066C109.577 5.68066 110.319 6.04118 110.777 6.5484L111.891 5.54297L113.004 4.53754C111.821 3.22836 110.162 2.68066 108.287 2.68066V4.18066ZM111.891 5.54297L110.795 6.5677C111.375 7.187 111.665 7.91498 111.665 8.83887H113.165H114.665C114.665 7.18463 114.106 5.71534 112.986 4.51823L111.891 5.54297ZM113.165 8.83887H111.665C111.665 9.72358 111.381 10.4398 110.795 11.0661L111.891 12.0908L112.986 13.1156C114.099 11.9255 114.665 10.4737 114.665 8.83887H113.165ZM111.891 12.0908L110.794 11.0673C110.339 11.5544 109.591 11.9092 108.287 11.9092V13.4092V14.9092C110.147 14.9092 111.801 14.3851 112.987 13.1143L111.891 12.0908ZM108.287 13.4092V11.9092C106.983 11.9092 106.235 11.5544 105.78 11.0673L104.684 12.0908L103.587 13.1143C104.773 14.3851 106.427 14.9092 108.287 14.9092V13.4092ZM104.684 12.0908L105.815 11.1056C105.273 10.4839 104.997 9.75465 104.997 8.83887H103.497H101.997C101.997 10.4426 102.512 11.8813 103.552 13.076L104.684 12.0908ZM103.497 8.83887H104.997C104.997 7.88434 105.279 7.14312 105.815 6.52814L104.684 5.54297L103.552 4.5578C102.506 5.75922 101.997 7.21527 101.997 8.83887H103.497ZM104.684 5.54297L105.797 6.5484C106.255 6.04118 106.998 5.68066 108.287 5.68066V4.18066V2.68066C106.413 2.68066 104.753 3.22836 103.57 4.53754L104.684 5.54297ZM112.418 69V67.5H104.244V69V70.5H112.418V69ZM104.244 69H105.744V21.4512H104.244H102.744V69H104.244ZM104.244 21.4512V22.9512H112.418V21.4512V19.9512H104.244V21.4512ZM112.418 21.4512H110.918V69H112.418H113.918V21.4512H112.418ZM134.654 69V70.5H136.154V69H134.654ZM126.437 69H124.937V70.5H126.437V69ZM126.437 1.5V0H124.937V1.5H126.437ZM134.654 1.5H136.154V0H134.654V1.5ZM134.654 69V67.5H126.437V69V70.5H134.654V69ZM126.437 69H127.937V1.5H126.437H124.937V69H126.437ZM126.437 1.5V3H134.654V1.5V0H126.437V1.5ZM134.654 1.5H133.154V69H134.654H136.154V1.5H134.654ZM156.539 69V70.5H158.039V69H156.539ZM148.321 69H146.821V70.5H148.321V69ZM148.321 1.5V0H146.821V1.5H148.321ZM156.539 1.5H158.039V0H156.539V1.5ZM156.539 69V67.5H148.321V69V70.5H156.539V69ZM148.321 69H149.821V1.5H148.321H146.821V69H148.321ZM148.321 1.5V3H156.539V1.5V0H148.321V1.5ZM156.539 1.5H155.039V69H156.539H158.039V1.5H156.539ZM169.767 61.8809L168.497 62.6801L168.502 62.6872L169.767 61.8809ZM167.525 54.3662V52.8662H166.025V54.3662H167.525ZM175.743 54.3662L177.24 54.2677L177.148 52.8662H175.743V54.3662ZM177.677 59.6836L176.543 60.666L176.555 60.6794L176.567 60.6926L177.677 59.6836ZM181.939 62.4521L181.465 63.8752L181.472 63.8776L181.939 62.4521ZM192.574 62.4082L193.122 63.8047L193.129 63.8019L193.136 63.7991L192.574 62.4082ZM196.002 59.9473L194.802 59.0473L194.798 59.0528L196.002 59.9473ZM196.397 53.1357L195.048 53.7911L195.06 53.8145L195.072 53.8376L196.397 53.1357ZM193.321 50.3672L192.601 51.6831L192.611 51.6883L192.621 51.6935L193.321 50.3672ZM186.29 48.126L185.984 49.5945L185.988 49.5952L186.29 48.126ZM177.149 45.3574L176.536 46.7262L176.545 46.7304L176.555 46.7345L177.149 45.3574ZM171.217 41.0068L170.036 41.9318L170.041 41.9379L170.045 41.9439L171.217 41.0068ZM171.305 27.5596L170.073 26.704L170.07 26.7076L171.305 27.5596ZM177.457 22.5059L178.104 23.8593L178.11 23.8563L177.457 22.5059ZM196.529 22.5938L195.858 23.9354L195.867 23.9397L195.876 23.944L196.529 22.5938ZM202.77 27.9551L201.504 28.7604L201.509 28.7679L202.77 27.9551ZM204.923 35.3818V36.8818H206.423V35.3818H204.923ZM196.705 35.3818H195.205V36.8818H196.705V35.3818ZM194.112 29.8008L193.034 30.8434L193.043 30.8525L194.112 29.8008ZM181.324 28.2188L181.984 29.5661L181.995 29.5604L181.324 28.2188ZM178.292 30.8555L177.003 30.0888L176.996 30.0997L178.292 30.8555ZM178.248 37.2715L177 38.1035L177.007 38.1134L177.013 38.1231L178.248 37.2715ZM181.456 39.5566L180.859 40.9327L180.868 40.9367L181.456 39.5566ZM188.312 41.5781L188.642 40.1149L188.641 40.1149L188.312 41.5781ZM203.121 63.1553L204.337 64.0335L204.343 64.0255L203.121 63.1553ZM196.705 68.1211L197.292 69.5014L197.305 69.496L196.705 68.1211ZM186.993 69.8789V68.3789C182.977 68.3789 179.682 67.6623 177.045 66.3042L176.358 67.6377L175.671 68.9712C178.836 70.6014 182.631 71.3789 186.993 71.3789V69.8789ZM176.358 67.6377L177.045 66.3042C174.339 64.9103 172.36 63.1583 171.031 61.0745L169.767 61.8809L168.502 62.6872C170.162 65.2909 172.577 67.3768 175.671 68.9712L176.358 67.6377ZM169.767 61.8809L171.036 61.0816C169.682 58.932 169.025 56.7019 169.025 54.3662H167.525H166.025C166.025 57.304 166.862 60.0836 168.497 62.6801L169.767 61.8809ZM167.525 54.3662V55.8662H175.743V54.3662V52.8662H167.525V54.3662ZM175.743 54.3662L174.246 54.4647C174.408 56.9258 175.133 59.0389 176.543 60.666L177.677 59.6836L178.81 58.7012C177.935 57.6915 177.371 56.2598 177.24 54.2677L175.743 54.3662ZM177.677 59.6836L176.567 60.6926C177.913 62.1739 179.554 63.2381 181.465 63.8752L181.939 62.4521L182.414 61.0291C180.985 60.5529 179.784 59.7714 178.787 58.6746L177.677 59.6836ZM181.939 62.4521L181.472 63.8776C183.312 64.4801 185.154 64.7871 186.993 64.7871V63.2871V61.7871C185.493 61.7871 183.966 61.5374 182.406 61.0267L181.939 62.4521ZM186.993 63.2871V64.7871C189.34 64.7871 191.4 64.48 193.122 63.8047L192.574 62.4082L192.027 61.0117C190.76 61.5083 189.1 61.7871 186.993 61.7871V63.2871ZM192.574 62.4082L193.136 63.7991C194.843 63.1096 196.239 62.1435 197.206 60.8418L196.002 59.9473L194.798 59.0528C194.241 59.8018 193.352 60.4763 192.013 61.0173L192.574 62.4082ZM196.002 59.9473L197.202 60.8473C198.188 59.5329 198.688 58.0306 198.688 56.3877H197.188H195.688C195.688 57.3815 195.398 58.2522 194.802 59.0473L196.002 59.9473ZM197.188 56.3877H198.688C198.688 54.9812 198.37 53.655 197.723 52.4339L196.397 53.1357L195.072 53.8376C195.48 54.6087 195.688 55.4504 195.688 56.3877H197.188ZM196.397 53.1357L197.747 52.4804C197.052 51.0506 195.714 49.9347 194.022 49.0409L193.321 50.3672L192.621 51.6935C194.034 52.4403 194.747 53.1701 195.048 53.7911L196.397 53.1357ZM193.321 50.3672L194.041 49.0513C192.292 48.0942 189.775 47.3112 186.592 46.6567L186.29 48.126L185.988 49.5952C189.074 50.2298 191.245 50.941 192.601 51.6831L193.321 50.3672ZM186.29 48.126L186.596 46.6575C183.154 45.9403 180.208 45.0442 177.744 43.9803L177.149 45.3574L176.555 46.7345C179.247 47.8972 182.395 48.8468 185.984 49.5944L186.29 48.126ZM177.149 45.3574L177.763 43.9887C175.38 42.9206 173.614 41.6019 172.388 40.0698L171.217 41.0068L170.045 41.9439C171.632 43.9274 173.821 45.5091 176.536 46.7262L177.149 45.3574ZM171.217 41.0068L172.398 40.0818C171.261 38.6307 170.651 36.7897 170.651 34.459H169.151H167.651C167.651 37.3431 168.419 39.8673 170.036 41.9318L171.217 41.0068ZM169.151 34.459H170.651C170.651 32.2448 171.276 30.242 172.539 28.4116L171.305 27.5596L170.07 26.7076C168.462 29.0373 167.651 31.6341 167.651 34.459H169.151ZM171.305 27.5596L172.537 28.4152C173.833 26.5479 175.669 25.0225 178.104 23.8593L177.457 22.5059L176.81 21.1524C173.972 22.5087 171.706 24.3525 170.073 26.704L171.305 27.5596ZM177.457 22.5059L178.11 23.8563C180.536 22.6832 183.411 22.0723 186.773 22.0723V20.5723V19.0723C183.046 19.0723 179.71 19.7504 176.804 21.1554L177.457 22.5059ZM186.773 20.5723V22.0723C190.409 22.0723 193.419 22.7157 195.858 23.9354L196.529 22.5938L197.2 21.2521C194.249 19.7765 190.755 19.0723 186.773 19.0723V20.5723ZM196.529 22.5938L195.876 23.944C198.384 25.1575 200.237 26.7694 201.504 28.7604L202.77 27.9551L204.035 27.1498C202.431 24.6291 200.124 22.6668 197.183 21.2435L196.529 22.5938ZM202.77 27.9551L201.509 28.7679C202.784 30.745 203.423 32.9369 203.423 35.3818H204.923H206.423C206.423 32.3776 205.627 29.6183 204.03 27.1423L202.77 27.9551ZM204.923 35.3818V33.8818H196.705V35.3818V36.8818H204.923V35.3818ZM196.705 35.3818H198.205C198.205 32.9309 197.112 30.7119 195.182 28.7491L194.112 29.8008L193.043 30.8525C194.57 32.4053 195.205 33.907 195.205 35.3818H196.705ZM194.112 29.8008L195.191 28.7582C193.13 26.6261 190.243 25.6641 186.773 25.6641V27.1641V28.6641C189.69 28.6641 191.696 29.4599 193.034 30.8433L194.112 29.8008ZM186.773 27.1641V25.6641C184.405 25.6641 182.336 26.0357 180.653 26.8771L181.324 28.2188L181.995 29.5604C183.125 28.9955 184.689 28.6641 186.773 28.6641V27.1641ZM181.324 28.2188L180.665 26.8714C179.083 27.6456 177.826 28.7047 177.003 30.0889L178.292 30.8555L179.581 31.6221C180.047 30.8383 180.812 30.1396 181.984 29.5661L181.324 28.2188ZM178.292 30.8555L176.996 30.0997C176.253 31.3737 175.869 32.7465 175.869 34.1953H177.369H178.869C178.869 33.3004 179.1 32.4466 179.588 31.6113L178.292 30.8555ZM177.369 34.1953H175.869C175.869 35.6297 176.232 36.9516 177 38.1035L178.248 37.2715L179.496 36.4394C179.092 35.8335 178.869 35.1047 178.869 34.1953H177.369ZM178.248 37.2715L177.013 38.1231C177.83 39.3079 179.197 40.2114 180.859 40.9327L181.456 39.5566L182.053 38.1806C180.61 37.5542 179.838 36.9343 179.483 36.4199L178.248 37.2715ZM181.456 39.5566L180.868 40.9367C182.574 41.6632 184.962 42.3605 187.982 43.0414L188.312 41.5781L188.641 40.1149C185.685 39.4481 183.502 38.7977 182.044 38.1766L181.456 39.5566ZM188.312 41.5781L187.981 43.0414C191.808 43.9045 194.896 44.9271 197.277 46.09L197.936 44.7422L198.594 43.3943C195.936 42.0963 192.608 41.0095 188.642 40.1149L188.312 41.5781ZM197.936 44.7422L197.277 46.09C199.631 47.2395 201.278 48.5981 202.325 50.1192L203.561 49.2686L204.796 48.4179C203.382 46.3648 201.279 44.7058 198.594 43.3943L197.936 44.7422ZM203.561 49.2686L202.325 50.1192C203.353 51.612 203.906 53.4837 203.906 55.8164H205.406H206.906C206.906 52.9929 206.229 50.4994 204.796 48.4179L203.561 49.2686ZM205.406 55.8164H203.906C203.906 58.2745 203.233 60.4133 201.899 62.285L203.121 63.1553L204.343 64.0255C206.056 61.6199 206.906 58.8661 206.906 55.8164H205.406ZM203.121 63.1553L201.905 62.277C200.562 64.1368 198.652 65.6355 196.105 66.7462L196.705 68.1211L197.305 69.496C200.266 68.2043 202.633 66.3925 204.337 64.0335L203.121 63.1553ZM196.705 68.1211L196.118 66.7409C193.589 67.817 190.56 68.3789 186.993 68.3789V69.8789V71.3789C190.868 71.3789 194.314 70.7689 197.292 69.5013L196.705 68.1211Z" fill="url(#paint0_linear_179_59)" mask="url(#path-1-outside-1_179_59)"/>
<defs>
<linearGradient id="paint0_linear_179_59" x1="-2.05957" y1="37" x2="209.94" y2="37" gradientUnits="userSpaceOnUse">
<stop stop-color="#1100FF"/>
<stop offset="1" stop-color="#FF00F2" stop-opacity="0.6"/>
</linearGradient>
</defs>
</svg>
